<?xml version="1.0" encoding="iso-8859-1"?>
<!-- Generator: Adobe Illustrator 18.1.1, SVG Export Plug-In . SVG Version: 6.00 Build 0)  -->
<svg version="1.1" id="Layer_1" xmlns="http://www.w3.org/2000/svg" xmlns:xlink="http://www.w3.org/1999/xlink" x="0px" y="0px"
	 width="97.667px" height="97.667px" viewBox="0 0 97.667 97.667" enable-background="new 0 0 97.667 97.667" xml:space="preserve">
<g>
	<path fill-rule="evenodd" clip-rule="evenodd" d="M74.898,34.069c-0.623-3.488-2.182-6.672-3.692-9.872
		c-0.874-3.073-1.966-5.941-3.245-8.545c-1.257-4.53-2.348-9.084-6.084-12.354c-2.813-2.462-6.101-3.012-9.467-2.466
		c-1.246-0.318-2.522-0.484-3.822-0.484c-8.28,0-15.616,6.701-20.169,17.018c-4.257,5.825-6.715,12.853-5.681,20.231
		c0.187,1.335,0.494,2.653,0.841,3.96c-0.001,0.147-0.007,0.291-0.007,0.438c0,4.813,0.496,9.431,1.399,13.732
		c-0.216,0.404-0.29,0.893-0.164,1.45c-0.034,0.083-0.057,0.165-0.093,0.248c-1.679,3.857-1.718,6.692,1.649,9.542
		c0.386,0.327,0.711,0.669,1.008,1.018c4.217,5.348,5.166,17.276,3.233,25.765c-0.598,2.624,3.377,2.029,5.5-0.083
		c0.957-0.952,1.869-1.164,2.1-2.503c0.132-0.762,0.699-5.465,0.423-5.828c0.998,1.315,3.456,1.909,4.317,0
		c0.023-0.052,0.052-0.111,0.08-0.169c1.613,1.845,3.596,4.619,4.36,5.228c1.664,1.325,6.955,5.18,6.302,2.814
		c-0.667-2.417,1.275-3.535,1.506-4.94c0.725,1.855,1.761,3.614,3.101,5.313c0.877,1.112,6.731,4.757,6.393,3.585
		c-2-6.917,0.302-8.428,0.419-11.578c0.078-2.094-0.007-3.748,0.668-5.426c0.467-0.626,0.869-1.309,1.21-2.028
		c1.131-1.398,2.43-2.404,3.209-4.088c1.63-3.523,1.151-8.186,1.329-11.956l0.206-4.339c0.936-3.804,1.555-7.88,1.775-12.152
		C74.822,41.891,75.609,38.052,74.898,34.069z"/>
	<linearGradient id="SVGID_28_" gradientUnits="userSpaceOnUse" x1="48.5867" y1="71.3333" x2="48.5867" y2="11.8287">
		<stop  offset="0" style="stop-color:#61E2E2"/>
		<stop  offset="1" style="stop-color:#27ABD5"/>
	</linearGradient>
	<path fill-rule="evenodd" clip-rule="evenodd" fill="url(#SVGID_28_)" d="M48.587,11.829c9.469,0,17.145,13.321,17.145,29.752
		s-7.676,29.752-17.145,29.752S31.441,58.013,31.441,41.581S39.118,11.829,48.587,11.829z"/>
	<linearGradient id="SVGID_29_" gradientUnits="userSpaceOnUse" x1="48.5867" y1="49" x2="48.5867" y2="6.1621">
		<stop  offset="0" style="stop-color:#61E2E2;stop-opacity:0"/>
		<stop  offset="1" style="stop-color:#FFFFFF"/>
	</linearGradient>
	<path fill-rule="evenodd" clip-rule="evenodd" fill="url(#SVGID_29_)" d="M48.587,6.162c6.817,0,12.343,9.59,12.343,21.419
		S55.404,49,48.587,49s-12.343-9.59-12.343-21.419S41.77,6.162,48.587,6.162z"/>
</g>
</svg>
