<?xml version="1.0" encoding="iso-8859-1"?>
<!-- Generator: Adobe Illustrator 18.1.1, SVG Export Plug-In . SVG Version: 6.00 Build 0)  -->
<svg version="1.1" id="Layer_1" xmlns="http://www.w3.org/2000/svg" xmlns:xlink="http://www.w3.org/1999/xlink" x="0px" y="0px"
	 width="324px" height="324px" viewBox="0 0 324 324" enable-background="new 0 0 324 324" xml:space="preserve">
<g id="proto">
	<path d="M199.828,51.541C190,41.003,176.002,34.405,160.456,34.405c-15.914,0-30.21,6.909-40.066,17.886
		c-46.778,16.742-80.25,61.453-80.25,113.986c0,66.849,54.192,121.041,121.041,121.041c66.849,0,121.039-54.192,121.039-121.041
		C282.22,112.943,247.724,67.668,199.828,51.541z"/>
	<path fill="#52F8F8" d="M196.619,62.668c-8.335-10.604-21.268-17.423-35.803-17.423c-14.695,0-27.755,6.97-36.079,17.776
		c-42.545,15.016-73.035,55.572-73.035,103.257c0,60.464,49.015,109.479,109.477,109.479c60.464,0,109.479-49.015,109.479-109.479
		C270.658,118.219,239.689,77.396,196.619,62.668z"/>
	<radialGradient id="SVGID_1_" cx="160.8186" cy="165.1984" r="103.3742" gradientUnits="userSpaceOnUse">
		<stop  offset="0" style="stop-color:#52F8F8"/>
		<stop  offset="1" style="stop-color:#39BDD7"/>
	</radialGradient>
	<path fill="url(#SVGID_1_)" d="M190.708,75.055c-6.559-9.701-17.661-16.079-30.253-16.079c-12.718,0-23.912,6.511-30.445,16.377
		c-40.401,13.007-69.637,50.898-69.637,95.623c0,55.475,44.971,100.445,100.444,100.445c55.475,0,100.445-44.971,100.445-100.445
		C261.263,125.912,231.586,87.779,190.708,75.055z"/>
	<radialGradient id="SVGID_2_" cx="160.8151" cy="169.9027" r="79.5663" gradientUnits="userSpaceOnUse">
		<stop  offset="0" style="stop-color:#00F1F3"/>
		<stop  offset="1" style="stop-color:#008DBB"/>
	</radialGradient>
	<path opacity="0.5" fill="url(#SVGID_2_)" d="M160.815,67.651c-25.94,0-46.971,45.779-46.971,102.251
		c0,14.773,1.44,28.81,4.03,41.491c11.536-5.356,26.691-8.612,43.302-8.612c16.296,0,31.187,3.136,42.638,8.31
		c2.551-12.602,3.971-26.533,3.971-41.189C207.786,113.431,186.757,67.651,160.815,67.651z"/>
	<linearGradient id="SVGID_3_" gradientUnits="userSpaceOnUse" x1="83.497" y1="136.6612" x2="238.1387" y2="136.6612">
		<stop  offset="0" style="stop-color:#FFFFFF;stop-opacity:0.75"/>
		<stop  offset="1" style="stop-color:#52F8F8"/>
	</linearGradient>
	<path opacity="0.25" fill-rule="evenodd" clip-rule="evenodd" fill="url(#SVGID_3_)" d="M238.139,136.662
		c0,42.899-34.617,77.674-77.321,77.674s-77.321-34.775-77.321-77.674c0-15.692,4.648-30.286,12.613-42.501
		c9.86-8.313,21.339-14.764,33.9-18.809c6.115-9.233,16.312-15.526,28.019-16.295c0.925-0.033,1.849-0.071,2.783-0.071
		c12.442,0.121,23.399,6.46,29.895,16.068c12.921,4.022,24.717,10.589,34.817,19.104
		C233.491,106.373,238.139,120.968,238.139,136.662L238.139,136.662z"/>
	<linearGradient id="SVGID_4_" gradientUnits="userSpaceOnUse" x1="100.8391" y1="118.9522" x2="220.7953" y2="118.9522">
		<stop  offset="0" style="stop-color:#FFFFFF;stop-opacity:0.75"/>
		<stop  offset="1" style="stop-color:#52F8F8"/>
	</linearGradient>
	<path opacity="0.25" fill-rule="evenodd" clip-rule="evenodd" fill="url(#SVGID_4_)" d="M160.818,178.929
		c-33.126,0-59.979-26.921-59.979-60.13c0-13.525,4.456-26.007,11.972-36.051c5.45-2.971,11.198-5.464,17.199-7.396
		c6.533-9.866,17.726-16.377,30.444-16.377c12.591,0,23.694,6.378,30.252,16.079c6.32,1.967,12.371,4.546,18.088,7.659
		c7.533,10.051,12,22.546,12,36.086C220.795,152.008,193.942,178.929,160.818,178.929L160.818,178.929z"/>
	<path fill-rule="evenodd" clip-rule="evenodd" fill="#52F8F8" d="M229.625,244.145c-17.975,16.911-42.178,27.277-68.807,27.277
		c-26.63,0-50.835-10.368-68.811-27.282c4.285-13.539,33.446-24.014,68.808-24.014C196.183,220.125,225.347,230.603,229.625,244.145
		L229.625,244.145z"/>
	<linearGradient id="SVGID_5_" gradientUnits="userSpaceOnUse" x1="160.464" y1="271.4214" x2="160.464" y2="222.2929">
		<stop  offset="0" style="stop-color:#00F1F3"/>
		<stop  offset="1" style="stop-color:#008DBB"/>
	</linearGradient>
	<path fill-rule="evenodd" clip-rule="evenodd" fill="url(#SVGID_5_)" d="M95.076,246.92c0.428-13.63,29.528-24.627,65.378-24.627
		c36.119,0,65.398,11.162,65.398,24.931c0,0.105-0.018,0.208-0.021,0.313c-17.521,14.893-40.216,23.885-65.013,23.885
		C135.678,271.421,112.694,262.185,95.076,246.92L95.076,246.92z"/>
	<g>
		<path d="M87.831,208.563l-60.182,56.948c-2.614-2.598-6.215-4.205-10.191-4.205c-7.982,0-14.451,6.469-14.451,14.451
			c0,7.982,6.469,14.453,14.451,14.453c7.982,0,14.453-6.471,14.453-14.453c0-2.802-0.81-5.409-2.19-7.623l59.555-47.3
			L87.831,208.563z"/>
		<path d="M306.508,260.584c-4.033,0-7.676,1.654-10.298,4.319l-60.242-57.062l-1.445,12.284l59.644,47.418
			c-1.331,2.187-2.111,4.747-2.111,7.493c0,7.982,6.469,14.453,14.451,14.453c7.982,0,14.453-6.471,14.453-14.453
			C320.961,267.053,314.49,260.584,306.508,260.584z"/>
	</g>
	<path fill-rule="evenodd" clip-rule="evenodd" fill="#52F8F8" d="M17.736,267.103c4.789,0,8.672,3.882,8.672,8.672
		c0,4.788-3.882,8.672-8.672,8.672c-4.788,0-8.67-3.884-8.67-8.672C9.065,270.985,12.948,267.103,17.736,267.103L17.736,267.103z"/>
	<path fill-rule="evenodd" clip-rule="evenodd" fill="#52F8F8" d="M306.786,266.38c4.789,0,8.672,3.882,8.672,8.672
		c0,4.788-3.882,8.672-8.672,8.672c-4.788,0-8.672-3.884-8.672-8.672C298.114,270.263,301.998,266.38,306.786,266.38L306.786,266.38
		z"/>
	<path fill-rule="evenodd" clip-rule="evenodd" d="M160.815,68.373c0,0,1.494,12.18-0.722,46.249
		c18.76-53.412,20.956-60.7,20.956-60.7h-0.723L160.815,68.373L160.815,68.373z"/>
	<polygon fill-rule="evenodd" clip-rule="evenodd" points="103.734,59.66 80.026,78.491 79.152,31.519 80.112,31.512 103.734,59.66 
			"/>
	<polygon fill-rule="evenodd" clip-rule="evenodd" points="215.295,59.66 239.003,78.491 239.877,31.519 238.917,31.512 
		215.295,59.66 	"/>
	<path fill-rule="evenodd" clip-rule="evenodd" fill="#0097C1" d="M161.177,234.577c21.751,0,39.383,6.148,39.383,13.73
		c0,7.583-17.633,13.73-39.383,13.73s-39.383-6.147-39.383-13.73C121.793,240.725,139.426,234.577,161.177,234.577L161.177,234.577z
		"/>
	<path fill-rule="evenodd" clip-rule="evenodd" d="M160.815,236.746c15.166,0,27.46,4.691,27.46,10.478
		c0,5.787-12.294,10.478-27.46,10.478c-15.165,0-27.46-4.691-27.46-10.478C133.355,241.437,145.65,236.746,160.815,236.746
		L160.815,236.746z"/>
	<linearGradient id="SVGID_6_" gradientUnits="userSpaceOnUse" x1="160.4543" y1="254.0878" x2="160.4543" y2="237.4673">
		<stop  offset="0" style="stop-color:#3AC0D9"/>
		<stop  offset="0.4592" style="stop-color:#52F8F8"/>
		<stop  offset="1" style="stop-color:#39BDD7"/>
	</linearGradient>
	<path fill-rule="evenodd" clip-rule="evenodd" fill="url(#SVGID_6_)" d="M160.454,237.467c11.375,0,20.595,3.722,20.595,8.31
		c0,4.59-9.22,8.31-20.595,8.31c-11.374,0-20.594-3.72-20.594-8.31C139.86,241.189,149.08,237.467,160.454,237.467L160.454,237.467z
		"/>
	<g id="eye_9_">
		<path fill-rule="evenodd" clip-rule="evenodd" d="M222.778,183.707l-35.119,10.766c0.006,0.184-0.006,0.365,0.008,0.551
			c0.641,9.391,9.466,15.934,19.708,14.614c10.242-1.318,18.024-10.001,17.384-19.392
			C224.593,187.853,223.893,185.648,222.778,183.707L222.778,183.707z"/>
		
			<linearGradient id="SVGID_7_" gradientUnits="userSpaceOnUse" x1="-735.3109" y1="196.5209" x2="-700.1892" y2="196.5209" gradientTransform="matrix(-1 0 0 1 -513.3478 0)">
			<stop  offset="0" style="stop-color:#DCDDFB"/>
			<stop  offset="1" style="stop-color:#FFFFFF"/>
		</linearGradient>
		<path fill-rule="evenodd" clip-rule="evenodd" fill="url(#SVGID_7_)" d="M220.056,184.178l-33.215,10.182
			c0.005,0.174-0.005,0.345,0.007,0.521c0.606,8.882,8.952,15.07,18.639,13.822c9.687-1.246,17.047-9.459,16.441-18.34
			C221.773,188.1,221.111,186.015,220.056,184.178L220.056,184.178z"/>
		<path fill-rule="evenodd" clip-rule="evenodd" d="M205.71,191.414c3.462,0.143,6.246,3.307,6.217,7.069
			c-0.029,3.761-2.858,6.695-6.32,6.552c-3.462-0.143-6.246-3.308-6.217-7.069C199.418,194.203,202.248,191.271,205.71,191.414
			L205.71,191.414z"/>
		<polygon fill-rule="evenodd" clip-rule="evenodd" points="182.771,196.146 186.471,191.705 231.633,174.219 225.005,183.938 
			182.771,196.146 		"/>
		<path fill-rule="evenodd" clip-rule="evenodd" fill="#FFFFFF" d="M210.237,194.858c3.265-1.076,6.286-1.125,6.749-0.109
			c0.463,1.017-1.809,2.713-5.072,3.79c-3.265,1.076-6.286,1.125-6.749,0.109C204.704,197.631,206.974,195.934,210.237,194.858
			L210.237,194.858z"/>
	</g>
	<g id="eye_8_">
		<path fill-rule="evenodd" clip-rule="evenodd" d="M100.673,183.707l35.119,10.766c-0.006,0.184,0.006,0.365-0.008,0.551
			c-0.641,9.391-9.466,15.934-19.708,14.614c-10.242-1.318-18.024-10.001-17.384-19.392
			C98.858,187.853,99.558,185.648,100.673,183.707L100.673,183.707z"/>
		<linearGradient id="SVGID_8_" gradientUnits="userSpaceOnUse" x1="101.4883" y1="196.5209" x2="136.61" y2="196.5209">
			<stop  offset="0" style="stop-color:#DCDDFB"/>
			<stop  offset="1" style="stop-color:#FFFFFF"/>
		</linearGradient>
		<path fill-rule="evenodd" clip-rule="evenodd" fill="url(#SVGID_8_)" d="M103.395,184.178l33.215,10.182
			c-0.005,0.174,0.005,0.345-0.007,0.521c-0.606,8.882-8.952,15.07-18.639,13.822c-9.687-1.246-17.047-9.459-16.441-18.34
			C101.679,188.1,102.341,186.015,103.395,184.178L103.395,184.178z"/>
		<path fill-rule="evenodd" clip-rule="evenodd" d="M117.742,191.414c-3.462,0.143-6.246,3.307-6.217,7.069
			c0.029,3.761,2.858,6.695,6.32,6.552c3.462-0.143,6.246-3.308,6.217-7.069C124.033,194.203,121.204,191.271,117.742,191.414
			L117.742,191.414z"/>
		<polygon fill-rule="evenodd" clip-rule="evenodd" points="140.68,196.146 136.981,191.705 91.819,174.219 98.446,183.938 
			140.68,196.146 		"/>
		<path fill-rule="evenodd" clip-rule="evenodd" fill="#FFFFFF" d="M113.214,194.858c-3.265-1.076-6.286-1.125-6.749-0.109
			c-0.463,1.017,1.809,2.713,5.072,3.79c3.265,1.076,6.286,1.125,6.749,0.109C118.747,197.631,116.477,195.934,113.214,194.858
			L113.214,194.858z"/>
	</g>
</g>
</svg>
