<?xml version="1.0" encoding="iso-8859-1"?>
<!-- Generator: Adobe Illustrator 18.1.1, SVG Export Plug-In . SVG Version: 6.00 Build 0)  -->
<svg version="1.1" id="Layer_1" xmlns="http://www.w3.org/2000/svg" xmlns:xlink="http://www.w3.org/1999/xlink" x="0px" y="0px"
	 width="324px" height="324px" viewBox="0 0 324 324" enable-background="new 0 0 324 324" xml:space="preserve">
<g id="virus-4">
	<g id="body_2_">
		<path d="M237.713,193.995C217,254.307,151.309,286.411,90.988,265.7c-60.32-20.711-92.427-86.393-71.714-146.705
			c20.715-60.312,86.405-92.415,146.725-71.704C226.318,68,258.425,133.684,237.713,193.995L237.713,193.995z M267.036,170.21
			c-16.413,47.774-68.462,73.205-116.258,56.799c-47.794-16.406-73.235-68.434-56.822-116.209
			c16.413-47.774,68.463-73.205,116.256-56.799C258.007,70.407,283.447,122.435,267.036,170.21L267.036,170.21z M289.886,149.666
			c-13.632,39.69-56.866,60.817-96.563,47.187c-39.698-13.629-60.829-56.852-47.197-96.542
			c13.632-39.691,56.865-60.817,96.563-47.189C282.387,66.751,303.516,109.977,289.886,149.666L289.886,149.666z M74.051,111.69
			c-6.458,18.8-26.936,28.808-45.74,22.352C9.506,127.586-0.504,107.111,5.954,88.311s26.936-28.808,45.74-22.352
			C70.499,72.415,80.509,92.89,74.051,111.69L74.051,111.69z M316.13,121.216c-9.507,27.679-39.656,42.412-67.34,32.907
			c-27.684-9.503-42.419-39.647-32.914-67.326c9.507-27.679,39.656-42.412,67.34-32.907C310.9,63.395,325.637,93.539,316.13,121.216
			L316.13,121.216z M125.151,261.367c-6.003,17.486-25.038,26.793-42.518,20.789c-17.479-6.004-26.783-25.046-20.78-42.532
			c6.003-17.486,25.038-26.791,42.516-20.789C121.85,224.839,131.154,243.883,125.151,261.367L125.151,261.367z"/>
		<linearGradient id="SVGID_1_" gradientUnits="userSpaceOnUse" x1="32.4144" y1="195.2666" x2="298.191" y2="71.3329">
			<stop  offset="0" style="stop-color:#BBD77B"/>
			<stop  offset="1" style="stop-color:#467217"/>
		</linearGradient>
		<path fill="url(#SVGID_1_)" d="M226.366,190.119c-18.558,54.052-77.416,82.825-131.461,64.264s-82.813-77.428-64.255-131.48
			c18.56-54.054,77.416-82.827,131.463-64.265C216.158,77.198,244.925,136.065,226.366,190.119L226.366,190.119z M255.659,165.985
			c-14.347,41.784-59.848,64.025-101.627,49.678c-41.781-14.349-64.02-59.855-49.673-101.639
			c14.347-41.785,59.848-64.025,101.627-49.678C247.767,78.695,270.006,124.201,255.659,165.985L255.659,165.985z M281.346,146.755
			c-12.013,34.982-50.11,53.603-85.092,41.59c-34.984-12.012-53.605-50.11-41.591-85.092c12.013-34.984,50.11-53.605,85.092-41.592
			C274.738,73.675,293.359,111.772,281.346,146.755L281.346,146.755z M65.565,109.106c-4.753,13.838-19.828,21.205-33.67,16.452
			c-13.842-4.751-21.211-19.823-16.458-33.663c4.753-13.84,19.828-21.205,33.671-16.454C62.951,80.195,70.318,95.267,65.565,109.106
			L65.565,109.106z M306.648,117.953c-7.709,22.449-32.156,34.398-54.603,26.69c-22.448-7.709-34.396-32.157-26.687-54.608
			c7.708-22.449,32.154-34.398,54.602-26.69C302.407,71.054,314.356,95.502,306.648,117.953L306.648,117.953z M114.74,258.15
			c-4.218,12.277-17.593,18.81-29.875,14.594c-12.282-4.214-18.819-17.584-14.601-29.861c4.216-12.275,17.593-18.81,29.875-14.594
			C112.42,232.505,118.957,245.873,114.74,258.15L114.74,258.15z"/>
		<linearGradient id="SVGID_2_" gradientUnits="userSpaceOnUse" x1="227.0535" y1="122.1561" x2="304.9519" y2="85.8315">
			<stop  offset="0" style="stop-color:#BBD77B"/>
			<stop  offset="1" style="stop-color:#467217"/>
		</linearGradient>
		<path fill-rule="evenodd" clip-rule="evenodd" fill="url(#SVGID_2_)" d="M279.96,63.344c22.448,7.709,34.396,32.157,26.688,54.608
			c-7.709,22.449-32.156,34.4-54.603,26.69c-22.448-7.709-34.396-32.157-26.687-54.608C233.066,67.585,257.512,55.636,279.96,63.344
			L279.96,63.344z"/>
		<linearGradient id="SVGID_3_" gradientUnits="userSpaceOnUse" x1="157.3062" y1="153.3073" x2="278.7019" y2="96.6996">
			<stop  offset="0" style="stop-color:#BBD77B"/>
			<stop  offset="1" style="stop-color:#467217"/>
		</linearGradient>
		<path fill-rule="evenodd" clip-rule="evenodd" fill="url(#SVGID_3_)" d="M239.754,61.662
			c34.984,12.013,53.605,50.11,41.592,85.094c-12.013,34.982-50.11,53.603-85.092,41.59c-34.984-12.012-53.605-50.11-41.591-85.092
			C166.676,68.269,204.772,49.648,239.754,61.662L239.754,61.662z"/>
		<linearGradient id="SVGID_4_" gradientUnits="userSpaceOnUse" x1="107.5163" y1="173.8089" x2="252.5027" y2="106.2006">
			<stop  offset="0" style="stop-color:#BBD77B"/>
			<stop  offset="1" style="stop-color:#467217"/>
		</linearGradient>
		<path fill-rule="evenodd" clip-rule="evenodd" fill="url(#SVGID_4_)" d="M205.986,64.348
			c41.781,14.347,64.02,59.853,49.673,101.637c-14.347,41.784-59.848,64.025-101.627,49.678
			c-41.781-14.349-64.02-59.855-49.673-101.639C118.707,72.24,164.207,49.999,205.986,64.348L205.986,64.348z"/>
		<linearGradient id="SVGID_5_" gradientUnits="userSpaceOnUse" x1="33.2594" y1="197.0788" x2="220.8105" y2="109.6223">
			<stop  offset="0" style="stop-color:#BBD77B"/>
			<stop  offset="1" style="stop-color:#467217"/>
		</linearGradient>
		<path fill="url(#SVGID_5_)" d="M226.366,190.119c-18.558,54.052-77.416,82.825-131.461,64.264s-82.813-77.428-64.255-131.48
			c18.56-54.054,77.416-82.827,131.463-64.265C216.158,77.198,244.925,136.065,226.366,190.119L226.366,190.119z M61.782,107.806
			c-4.035,11.752-16.835,18.005-28.589,13.971c-11.752-4.035-18.009-16.833-13.973-28.583c4.037-11.75,16.835-18.005,28.589-13.97
			C59.561,83.26,65.818,96.056,61.782,107.806L61.782,107.806z M110.951,257.165c-3.404,9.917-14.201,15.194-24.114,11.789
			c-9.913-3.404-15.191-14.205-11.787-24.121c3.406-9.917,14.201-15.196,24.114-11.791
			C109.079,236.448,114.355,247.247,110.951,257.165L110.951,257.165z"/>
		<linearGradient id="SVGID_6_" gradientUnits="userSpaceOnUse" x1="56.329" y1="151.4401" x2="283.9004" y2="151.4401">
			<stop  offset="0" style="stop-color:#588600"/>
			<stop  offset="1" style="stop-color:#3C5211"/>
		</linearGradient>
		<path opacity="0.5" fill-rule="evenodd" clip-rule="evenodd" fill="url(#SVGID_6_)" d="M283.523,108.836
			c-4.843,6.053-3.507,12.917-10.861,16.958c-4.288,2.358-11.634-0.074-16.207,2.383c-4.867,2.614-6.815,9.841-12.331,12.126
			c-5.82,2.409-14.821-0.028-20.025,2.997c7.478,10.173-5.043,17.917-7.522,21.949c-3.423,5.567-3.046,11.75-7.899,15.329
			c-1.962,1.446-5.736,0.628-7.715,2.165c-0.863,2.749-1.726,5.5-2.588,8.25c-2.291,4.297-8.32,11.74-12.491,13.996
			c-4.7,2.542-10.664-1.126-16.982,0.432c-7.692,1.897-13.312,11.294-21.835,13.198c-5.744,1.283-16.556-1.463-19.467-3.546
			c-0.542-0.988-1.086-1.976-1.63-2.962c-4.148-1.818-5.479,2.541-7.795,3.099c-7.657,1.848-19.57-2.849-23.044-5.732
			c-2.451-2.037-2.935-6.387-4.888-8.89c-3.139,2.165-7.327,2.967-12.468,2.7c-3.174-3.276-7.302-5.102-10.576-8.434
			c-1.762-1.791,0.088-4.478-1.311-6.701c-0.27-0.43-8.281-7.864-9.561-9.289c1.584-19.651,14.538-17.21,16.572-28.708
			c-3.297-2.925-9.215-6.629-10.338-11.238c0.577-3.088,1.156-6.178,1.733-9.266c-0.246-1.97-2.895-7.088-0.912-11.373
			c1.018-2.198,5.209-3.3,6.087-5.129c0.858-1.79,0.326-10.433,1.118-13.084c4.346-1.983,10.547-1.951,15.431-4.33
			c3.409-1.66,4.764-6.423,9.129-7.694c6.976-2.028,29.804-2.505,39.49,0.549c1.109,0.349,4.75,2.635,6.381,2.428
			c3.272-0.418,9.082-3.825,13.563-4.492c15.535-2.305,24.393,5.774,37.063,6.93c5.309-6.422,21.376-10.32,35.294-5.457
			c2.655,0.926,7.713,3.958,12.924,2.986c5.536-2.351,11.071-4.704,16.605-7.055C276.451,84.922,285.971,88.59,283.523,108.836
			L283.523,108.836z M265.392,100.698c-5.201-3.574-11.573,2.825-15.431,4.33c-5.051,1.972-19.096,2.014-26.327-0.365
			c-3.86-1.27-12.371-4.781-17.675-2.451c-3.114,1.369-5.179,5.844-9.05,6.758c-15.954,3.765-24.758-8.964-37.996-7.009
			c-5.529,0.816-9.503,4.407-13.642,5.423c-6.688,1.644-12.819-2.976-16.582-4.239c-7.502-0.328-15.007-0.654-22.509-0.981
			c-9.015,1.616-7.736,8.771-21.516,9.459c-0.632,3.711-1.262,7.424-1.893,11.134c3.935,2.925,4.483,5.437,3.635,12.547
			c-2.23,1.311-2.091,1.365-2.109,2.644c2.174,3.918,7.32,17.479,1.663,24.618c-1.944,5.35-7.108,7.632-11.236,10.336
			c0.449,1.69,0.102,0.923,0.774,1.949c2.579,3.218,4.337,4.535,5.823,8.969c6.488,1.181,12.978,2.363,19.467,3.544
			c4.869,3.242,2.981,9.518,10.336,11.238c3.26,1.218,11.922-5.778,20.879-1.983c4.493,1.905,4.076,5.499,10.734,6.565
			c3.642-3.153,16.458-12.24,20.904-13.277c4.397-1.026,11.527,0.697,15.031,0.342c1.53-3.734,4.829-5.627,6.406-8.867
			c0.888-3.062,1.777-6.123,2.667-9.185c2.59-3.356,9.311-2.59,11.773-5.585c3.069-3.734,2.191-9.676,4.936-13.698
			c0.697-1.023,4.42-1.619,4.911-2.406c0.735-1.174-1.293-5.055-1.39-5.765c-0.784-5.758,1.872-10.392,3.065-13.859
			c3.939-1.433,8.176-3.7,12.629-4.571c4.413-0.249,8.829-0.5,13.242-0.751c4.111-4.041,8.222-8.085,12.333-12.126
			c9.378-5.146,16.924,4.979,18.874-11.568C267.208,101.481,266.301,101.09,265.392,100.698L265.392,100.698z M210.496,121.004
			c-2.486,0-4.5-2.014-4.5-4.5c0-2.484,2.014-4.5,4.5-4.5c2.484,0,4.499,2.016,4.499,4.5
			C214.994,118.99,212.98,121.004,210.496,121.004L210.496,121.004z M189.957,138.911c-5.522,0-9.999-4.476-9.999-9.999
			c0-5.523,4.478-10.001,9.999-10.001c5.523,0,10.001,4.478,10.001,10.001C199.958,134.435,195.48,138.911,189.957,138.911
			L189.957,138.911z M171.957,168.912c-5.523,0-9.999-4.478-9.999-10.001c0-5.522,4.476-9.999,9.999-9.999
			c5.523,0,10.001,4.478,10.001,9.999C181.958,164.434,177.48,168.912,171.957,168.912L171.957,168.912z M166.495,142.004
			c-2.486,0-4.5-2.016-4.5-4.5c0-2.486,2.014-4.5,4.5-4.5c2.484,0,4.5,2.014,4.5,4.5
			C170.996,139.988,168.98,142.004,166.495,142.004L166.495,142.004z M160.958,126.911c-5.523,0-10.001-4.478-10.001-10.001
			c0-5.522,4.478-9.999,10.001-9.999c5.522,0,9.999,4.478,9.999,9.999C170.957,122.434,166.479,126.911,160.958,126.911
			L160.958,126.911z M155.957,140.911c0,5.523-4.478,10.001-9.999,10.001c-5.523,0-10.001-4.478-10.001-10.001
			c0-5.523,4.478-9.999,10.001-9.999C151.48,130.912,155.957,135.388,155.957,140.911L155.957,140.911z M135.494,122.004
			c-2.484,0-4.499-2.016-4.499-4.5c0-2.484,2.014-4.5,4.499-4.5c2.486,0,4.5,2.016,4.5,4.5
			C139.994,119.988,137.98,122.004,135.494,122.004L135.494,122.004z M125.495,137.004c-2.486,0-4.5-2.014-4.5-4.5
			c0-2.484,2.014-4.5,4.5-4.5c2.484,0,4.5,2.016,4.5,4.5C129.995,134.989,127.979,137.004,125.495,137.004L125.495,137.004z
			 M109.957,171.912c-5.522,0-9.999-4.478-9.999-10.001s4.478-9.999,9.999-9.999c5.523,0,10.001,4.476,10.001,9.999
			S115.48,171.912,109.957,171.912L109.957,171.912z M106.958,133.912c-5.523,0-10.001-4.478-10.001-10.001
			c0-5.523,4.478-9.999,10.001-9.999c5.522,0,9.999,4.476,9.999,9.999C116.957,129.434,112.48,133.912,106.958,133.912
			L106.958,133.912z M100.494,140.004c2.486,0,4.5,2.014,4.5,4.5c0,2.484-2.014,4.499-4.5,4.499c-2.484,0-4.5-2.014-4.5-4.499
			C95.994,142.018,98.01,140.004,100.494,140.004L100.494,140.004z M97.994,176.504c0,2.484-2.014,4.5-4.499,4.5
			c-2.486,0-4.5-2.016-4.5-4.5c0-2.486,2.014-4.5,4.5-4.5C95.98,172.003,97.994,174.017,97.994,176.504L97.994,176.504z
			 M119.494,177.004c2.486,0,4.5,2.014,4.5,4.5c0,2.484-2.014,4.499-4.5,4.499c-2.484,0-4.499-2.014-4.499-4.499
			C114.996,179.018,117.01,177.004,119.494,177.004L119.494,177.004z M129.495,150.003c2.484,0,4.5,2.016,4.5,4.5
			c0,2.486-2.016,4.5-4.5,4.5c-2.486,0-4.5-2.014-4.5-4.5C124.995,152.019,127.009,150.003,129.495,150.003L129.495,150.003z
			 M140.958,165.911c5.523,0,9.999,4.478,9.999,9.999c0,5.523-4.476,10.001-9.999,10.001c-5.523,0-10.001-4.478-10.001-10.001
			C130.957,170.389,135.434,165.911,140.958,165.911L140.958,165.911z M161.495,177.004c2.486,0,4.5,2.014,4.5,4.5
			c0,2.484-2.014,4.499-4.5,4.499c-2.484,0-4.5-2.014-4.5-4.499C156.994,179.018,159.01,177.004,161.495,177.004L161.495,177.004z
			 M189.495,144.004c2.484,0,4.499,2.014,4.499,4.499c0,2.486-2.014,4.5-4.499,4.5c-2.486,0-4.5-2.014-4.5-4.5
			C184.995,146.018,187.009,144.004,189.495,144.004L189.495,144.004z"/>
		<path fill-rule="evenodd" clip-rule="evenodd" fill="#B8C450" d="M43.484,135.217c-7.085,20.635-7.074,41.981-1.311,61.42
			c-9.501-20.667-11.657-44.764-4.367-68.05c-9.783-3.392-16.817-12.664-16.817-23.602c0-13.806,11.192-24.999,25.001-24.999
			c6.937,0,13.212,2.827,17.74,7.39c24.779-23.004,61.069-31.964,95.261-20.205c4.149,1.426,8.12,3.134,11.933,5.057
			C118.414,54.712,61.5,82.753,43.484,135.217L43.484,135.217z M96.489,216.988c13.531,0,24.501,9.848,24.501,21.999
			s-10.969,22-24.501,22c-13.531,0-24.499-9.85-24.499-22S82.958,216.988,96.489,216.988L96.489,216.988z"/>
	</g>
	<g id="eye_7_">
		<path fill-rule="evenodd" clip-rule="evenodd" d="M55.522,90.296c5.965,7.229,5.081,18.71-1.976,25.646
			c-7.057,6.934-17.614,6.697-23.579-0.53c-5.965-7.229-5.081-18.71,1.976-25.646C38.999,82.832,49.556,83.069,55.522,90.296
			L55.522,90.296z"/>
		<radialGradient id="SVGID_7_" cx="46.2507" cy="102.1357" r="17.4491" gradientUnits="userSpaceOnUse">
			<stop  offset="0" style="stop-color:#FFFFFF"/>
			<stop  offset="0.2115" style="stop-color:#FFFEFC"/>
			<stop  offset="0.3677" style="stop-color:#FDFAF3"/>
			<stop  offset="0.5062" style="stop-color:#FBF3E3"/>
			<stop  offset="0.6343" style="stop-color:#F7E9CC"/>
			<stop  offset="0.7553" style="stop-color:#F3DDAF"/>
			<stop  offset="0.8711" style="stop-color:#EECE8B"/>
			<stop  offset="0.9807" style="stop-color:#E7BC61"/>
			<stop  offset="1" style="stop-color:#E6B959"/>
		</radialGradient>
		<path fill-rule="evenodd" clip-rule="evenodd" fill="url(#SVGID_7_)" d="M59.027,89.578c5.967,7.229,5.083,18.71-1.974,25.644
			c-7.059,6.936-17.616,6.699-23.581-0.53c-5.965-7.227-5.081-18.709,1.976-25.644C42.505,82.113,53.062,82.351,59.027,89.578
			L59.027,89.578z"/>
		<path fill-rule="evenodd" clip-rule="evenodd" d="M54.174,102.72c2.327,2.842,2.032,7.313-0.658,9.987
			c-2.69,2.676-6.757,2.539-9.083-0.302c-2.327-2.842-2.032-7.313,0.658-9.989C47.781,99.742,51.848,99.877,54.174,102.72
			L54.174,102.72z"/>
		<path fill-rule="evenodd" clip-rule="evenodd" fill="#FFFFFF" d="M53.006,99.219c0.091,3.593-0.958,6.629-2.341,6.78
			c-1.383,0.151-2.576-2.639-2.667-6.232c-0.09-3.595,0.958-6.63,2.341-6.781C51.722,92.835,52.916,95.626,53.006,99.219
			L53.006,99.219z"/>
		<path fill-rule="evenodd" clip-rule="evenodd" fill="#3C5211" d="M56.331,87.013c0.969,0.728,1.879,1.576,2.697,2.565
			c5.967,7.229,5.083,18.71-1.974,25.644c-1.991,1.956-4.264,3.32-6.629,4.139L56.331,87.013L56.331,87.013z"/>
	</g>
	<g id="eye_6_">
		<path fill-rule="evenodd" clip-rule="evenodd" d="M114.448,249.763c-5.502,7.736-17.019,9.578-25.727,4.114
			c-8.706-5.462-11.305-16.161-5.804-23.897c5.501-7.736,17.019-9.578,25.725-4.116C117.35,231.328,119.949,242.027,114.448,249.763
			L114.448,249.763z"/>
		<radialGradient id="SVGID_8_" cx="102.3191" cy="239.1395" r="17.9151" gradientUnits="userSpaceOnUse">
			<stop  offset="0" style="stop-color:#FFFFFF"/>
			<stop  offset="0.2115" style="stop-color:#FFFEFC"/>
			<stop  offset="0.3677" style="stop-color:#FDFAF3"/>
			<stop  offset="0.5062" style="stop-color:#FBF3E3"/>
			<stop  offset="0.6343" style="stop-color:#F7E9CC"/>
			<stop  offset="0.7553" style="stop-color:#F3DDAF"/>
			<stop  offset="0.8711" style="stop-color:#EECE8B"/>
			<stop  offset="0.9807" style="stop-color:#E7BC61"/>
			<stop  offset="1" style="stop-color:#E6B959"/>
		</radialGradient>
		<path fill-rule="evenodd" clip-rule="evenodd" fill="url(#SVGID_8_)" d="M118.084,249.029c-5.501,7.736-17.019,9.58-25.725,4.116
			c-8.706-5.462-11.306-16.161-5.804-23.897c5.5-7.736,17.017-9.578,25.725-4.116C120.986,230.596,123.586,241.295,118.084,249.029
			L118.084,249.029z"/>
		<path fill-rule="evenodd" clip-rule="evenodd" d="M105.69,239.227c-2.086,2.993-6.515,3.665-9.89,1.502
			c-3.376-2.165-4.42-6.346-2.332-9.338c2.086-2.993,6.515-3.665,9.89-1.502C106.734,232.054,107.778,236.235,105.69,239.227
			L105.69,239.227z"/>
		<path fill-rule="evenodd" clip-rule="evenodd" fill="#FFFFFF" d="M100.026,229.405c2.446,2.667,3.786,5.551,2.999,6.441
			c-0.79,0.891-3.411-0.549-5.857-3.216c-2.444-2.667-3.786-5.551-2.997-6.441C94.961,225.298,97.582,226.738,100.026,229.405
			L100.026,229.405z"/>
		<path fill-rule="evenodd" clip-rule="evenodd" fill="#3C5211" d="M119.889,234.305c1.746,4.706,1.193,9.527-1.079,13.461
			l-22.635-24.988c0.028-0.009,0.056-0.019,0.084-0.028C105.941,220.06,116.52,225.234,119.889,234.305L119.889,234.305z"/>
	</g>
	<path fill-rule="evenodd" clip-rule="evenodd" fill="#FFFFFF" d="M48.727,206.473c5.286,8.82,13.045,16.124,22.535,20.826
		c-2.748,7.887-9.041,12.45-15.352,10.501c-7.362-2.274-11.941-12.538-10.231-22.925C46.209,211.658,47.281,208.81,48.727,206.473
		L48.727,206.473z"/>
</g>
</svg>
