<?xml version="1.0" encoding="iso-8859-1"?>
<!-- Generator: Adobe Illustrator 18.1.1, SVG Export Plug-In . SVG Version: 6.00 Build 0)  -->
<svg version="1.1" id="Layer_1" xmlns="http://www.w3.org/2000/svg" xmlns:xlink="http://www.w3.org/1999/xlink" x="0px" y="0px"
	 width="324px" height="324px" viewBox="0 0 324 324" enable-background="new 0 0 324 324" xml:space="preserve">
<g id="virus-3_1_">
	<g id="body_1_">
		<defs>
			<path id="SVGID_9_" d="M265.712,199.007c-20.714,60.321-86.403,92.428-146.724,71.714
				c-60.32-20.712-92.426-86.403-71.714-146.723c20.714-60.321,86.405-92.428,146.724-71.714
				C254.317,72.996,286.426,138.687,265.712,199.007L265.712,199.007z M305.043,151.192c-9.776,28.468-40.779,43.622-69.247,33.846
				c-28.466-9.776-43.62-40.779-33.845-69.247c9.776-28.466,40.779-43.62,69.245-33.845
				C299.665,91.722,314.819,122.724,305.043,151.192L305.043,151.192z M126.913,239.516c-10.223,29.773-42.648,45.619-72.422,35.396
				c-29.774-10.223-45.622-42.645-35.397-72.417c10.223-29.771,42.648-45.617,72.422-35.394
				C121.289,177.324,137.138,209.745,126.913,239.516L126.913,239.516z M103.293,117.73c-5.649,16.453-23.569,25.211-40.022,19.562
				c-16.455-5.651-25.213-23.567-19.562-40.02c5.649-16.453,23.569-25.211,40.022-19.562
				C100.187,83.361,108.944,101.277,103.293,117.73L103.293,117.73z M229.322,80.068c-5.56,16.191-23.195,24.809-39.387,19.249
				c-16.194-5.56-24.812-23.193-19.252-39.384c5.56-16.192,23.195-24.81,39.387-19.25C226.262,46.243,234.882,63.876,229.322,80.068
				L229.322,80.068z M156.457,265.755c-5.112,14.886-21.324,22.81-36.212,17.698c-14.886-5.111-22.81-21.322-17.698-36.209
				c5.111-14.886,21.324-22.808,36.21-17.698C153.645,234.659,161.569,250.869,156.457,265.755L156.457,265.755z"/>
		</defs>
		<defs>
			<path id="SVGID_10_" d="M257.146,195.736c-19.183,55.864-80.022,85.601-135.886,66.418
				c-55.866-19.183-85.601-80.022-66.418-135.888c19.183-55.864,80.022-85.599,135.886-66.416
				C246.592,79.034,276.329,139.872,257.146,195.736L257.146,195.736z"/>
		</defs>
		<defs>
			<path id="SVGID_11_" d="M297.45,148.257c-8.43,24.549-35.167,37.617-59.717,29.187c-24.55-8.43-37.618-35.167-29.188-59.717
				c8.43-24.549,35.167-37.617,59.717-29.187C292.812,96.97,305.88,123.707,297.45,148.257L297.45,148.257z"/>
		</defs>
		<defs>
			<path id="SVGID_12_" d="M120.32,237.558c-8.88,25.847-37.038,39.605-62.893,30.728c-25.856-8.875-39.62-37.023-30.741-62.868
				c8.878-25.846,37.037-39.603,62.893-30.728C115.436,183.566,129.198,211.713,120.32,237.558L120.32,237.558z"/>
		</defs>
		<defs>
			<path id="SVGID_13_" d="M98.591,116.444c-4.662,13.58-19.452,20.809-33.034,16.145c-13.58-4.664-20.81-19.452-16.146-33.033
				c4.664-13.58,19.454-20.809,33.034-16.145C96.027,88.073,103.255,102.864,98.591,116.444L98.591,116.444z"/>
		</defs>
		<defs>
			<path id="SVGID_14_" d="M222.727,78.131c-4.216,12.274-17.582,18.807-29.859,14.592c-12.274-4.214-18.808-17.582-14.594-29.857
				c4.216-12.273,17.584-18.807,29.859-14.592C220.409,52.49,226.943,65.856,222.727,78.131L222.727,78.131z"/>
		</defs>
		<defs>
			<path id="SVGID_15_" d="M150.809,264.144c-3.947,11.49-16.461,17.607-27.954,13.66c-11.491-3.945-17.607-16.459-13.662-27.95
				c3.947-11.491,16.461-17.607,27.952-13.662C148.638,240.139,154.754,252.653,150.809,264.144L150.809,264.144z"/>
		</defs>
		<defs>
			<path id="SVGID_16_" d="M249.518,192.795c-17.758,51.712-74.073,79.237-125.786,61.479
				c-51.712-17.758-79.239-74.073-61.481-125.786s74.075-79.237,125.787-61.481C239.749,84.765,267.275,141.083,249.518,192.795
				L249.518,192.795z"/>
		</defs>
		<defs>
			<path id="SVGID_17_" d="M291.204,148.764c-7.175,20.894-29.928,32.015-50.823,24.84c-20.894-7.175-32.015-29.928-24.84-50.822
				c7.175-20.894,29.93-32.015,50.823-24.84C287.258,105.117,298.379,127.871,291.204,148.764L291.204,148.764z"/>
		</defs>
		<defs>
			<path id="SVGID_18_" d="M110.584,234.403c-7.175,20.894-29.93,32.015-50.823,24.84c-20.894-7.175-32.015-29.93-24.84-50.823
				c7.175-20.894,29.93-32.015,50.823-24.84C106.638,190.755,117.759,213.51,110.584,234.403L110.584,234.403z"/>
		</defs>
		<defs>
			<path id="SVGID_19_" d="M95.889,115.147c-3.678,10.705-15.339,16.402-26.047,12.726c-10.706-3.676-16.407-15.332-12.729-26.037
				c3.676-10.703,15.337-16.4,26.045-12.726C93.867,92.786,99.567,104.444,95.889,115.147L95.889,115.147z"/>
		</defs>
		<defs>
			<path id="SVGID_20_" d="M216.16,74.524c-2.78,8.093-11.597,12.401-19.694,9.621c-8.097-2.778-12.406-11.592-9.626-19.685
				c2.782-8.093,11.599-12.401,19.694-9.623C214.631,57.617,218.94,66.431,216.16,74.524L216.16,74.524z"/>
		</defs>
		<defs>
			<path id="SVGID_21_" d="M145.16,261.524c-2.78,8.093-11.597,12.401-19.694,9.623c-8.097-2.78-12.406-11.594-9.626-19.687
				c2.782-8.093,11.599-12.401,19.694-9.621C143.631,244.617,147.94,253.431,145.16,261.524L145.16,261.524z"/>
		</defs>
		<defs>
			<path id="SVGID_22_" d="M241.287,189.423c-16.08,46.731-67.076,71.606-113.902,55.558
				c-46.826-16.046-71.752-66.939-55.671-113.669c16.079-46.731,67.076-71.604,113.9-55.557
				C232.441,91.801,257.366,142.692,241.287,189.423L241.287,189.423z"/>
		</defs>
		<defs>
			<path id="SVGID_23_" d="M279.034,149.636c-6.496,18.881-27.101,28.931-46.021,22.448c-18.919-6.484-28.99-27.047-22.493-45.927
				c6.496-18.881,27.101-28.931,46.021-22.448C275.461,110.193,285.532,130.755,279.034,149.636L279.034,149.636z"/>
		</defs>
		<defs>
			<path id="SVGID_24_" d="M125.481,227.024c-6.497,18.881-27.101,28.931-46.022,22.448c-18.919-6.484-28.99-27.046-22.493-45.927
				c6.497-18.881,27.101-28.931,46.021-22.448C121.905,187.581,131.976,208.143,125.481,227.024L125.481,227.024z"/>
		</defs>
		<defs>
			<path id="SVGID_25_" d="M119.174,110.257c-3.33,9.672-13.889,14.82-23.585,11.5c-9.698-3.322-14.858-13.856-11.529-23.529
				c3.33-9.673,13.891-14.822,23.587-11.5C117.342,90.049,122.504,100.584,119.174,110.257L119.174,110.257z"/>
		</defs>
		<defs>
			<path id="SVGID_26_" d="M218.081,89.547c-2.518,7.314-10.502,11.206-17.832,8.694c-7.331-2.511-11.234-10.475-8.717-17.789
				c2.518-7.314,10.502-11.206,17.832-8.696C216.697,74.269,220.599,82.234,218.081,89.547L218.081,89.547z"/>
		</defs>
		<defs>
			<path id="SVGID_27_" d="M133.789,247.532c-2.518,7.314-10.502,11.206-17.832,8.696c-7.331-2.511-11.234-10.476-8.717-17.789
				c2.518-7.314,10.501-11.207,17.832-8.696C132.405,232.254,136.307,240.219,133.789,247.532L133.789,247.532z"/>
		</defs>
		<defs>
			<path id="SVGID_28_" d="M180.653,87.235c40.463,13.896,62,57.96,48.106,98.424c-13.894,40.462-57.96,62-98.422,48.104
				c-40.463-13.894-62-57.958-48.106-98.422C96.126,94.878,140.191,73.34,180.653,87.235L180.653,87.235z"/>
		</defs>
		<defs>
			<path id="SVGID_29_" d="M135.94,143.828c-3.497,10.186-14.589,15.606-24.774,12.109c-10.186-3.497-15.606-14.589-12.109-24.774
				c3.497-10.186,14.589-15.606,24.774-12.109C134.016,122.55,139.437,133.642,135.94,143.828L135.94,143.828z"/>
		</defs>
		<defs>
			<path id="SVGID_30_" d="M207.94,143.828c-3.497,10.186-14.589,15.606-24.774,12.109c-10.185-3.497-15.606-14.589-12.109-24.774
				c3.497-10.186,14.589-15.606,24.774-12.109C206.017,122.55,211.437,133.642,207.94,143.828L207.94,143.828z"/>
		</defs>
		<defs>
			<path id="SVGID_31_" d="M263.94,144.828c-3.497,10.186-14.589,15.606-24.774,12.109c-10.184-3.499-15.606-14.591-12.108-24.774
				c3.497-10.185,14.589-15.606,24.773-12.109C262.016,123.551,267.437,134.642,263.94,144.828L263.94,144.828z"/>
		</defs>
		<defs>
			<path id="SVGID_32_" d="M97.32,221.554c-2.242,6.529-9.352,10.003-15.881,7.762c-6.529-2.242-10.003-9.352-7.762-15.881
				c2.242-6.529,9.352-10.003,15.881-7.762C96.087,207.915,99.562,215.026,97.32,221.554L97.32,221.554z"/>
		</defs>
		<defs>
			<path id="SVGID_33_" d="M104.674,103.944c-1.077,3.132-4.488,4.801-7.623,3.725c-3.134-1.075-4.803-4.489-3.726-7.623
				c1.077-3.134,4.489-4.801,7.623-3.726C104.082,97.396,105.75,100.809,104.674,103.944L104.674,103.944z"/>
		</defs>
		<defs>
			<path id="SVGID_34_" d="M213.483,89.58c-1.703,4.961-7.107,7.602-12.069,5.898c-4.961-1.703-7.602-7.107-5.898-12.069
				c1.703-4.963,7.107-7.604,12.069-5.898C212.547,79.214,215.188,84.618,213.483,89.58L213.483,89.58z"/>
		</defs>
		<defs>
			<path id="SVGID_35_" d="M226.674,155.942c-1.077,3.134-4.489,4.803-7.623,3.726c-3.134-1.077-4.803-4.489-3.726-7.623
				c1.077-3.134,4.488-4.803,7.623-3.726S227.751,152.808,226.674,155.942L226.674,155.942z"/>
		</defs>
		<use xlink:href="#SVGID_9_"  overflow="visible"/>
		<use xlink:href="#SVGID_10_"  overflow="visible" fill="#92BC44"/>
		<use xlink:href="#SVGID_11_"  overflow="visible" fill="#92BC44"/>
		<use xlink:href="#SVGID_12_"  overflow="visible" fill="#92BC44"/>
		<use xlink:href="#SVGID_13_"  overflow="visible" fill="#92BC44"/>
		<use xlink:href="#SVGID_14_"  overflow="visible" fill="#92BC44"/>
		<use xlink:href="#SVGID_15_"  overflow="visible" fill="#92BC44"/>
		<use xlink:href="#SVGID_16_"  overflow="visible" fill="#5F8318"/>
		<use xlink:href="#SVGID_17_"  overflow="visible" fill="#5F8318"/>
		<use xlink:href="#SVGID_18_"  overflow="visible" fill="#5F8318"/>
		<use xlink:href="#SVGID_19_"  overflow="visible" fill="#5F8318"/>
		<use xlink:href="#SVGID_20_"  overflow="visible" fill="#5F8318"/>
		<use xlink:href="#SVGID_21_"  overflow="visible" fill="#5F8318"/>
		<use xlink:href="#SVGID_22_"  overflow="visible" fill="#577914"/>
		<use xlink:href="#SVGID_23_"  overflow="visible" fill="#577914"/>
		<use xlink:href="#SVGID_24_"  overflow="visible" fill="#577914"/>
		<use xlink:href="#SVGID_25_"  overflow="visible" fill="#577914"/>
		<use xlink:href="#SVGID_26_"  overflow="visible" fill="#577914"/>
		<use xlink:href="#SVGID_27_"  overflow="visible" fill="#577914"/>
		<radialGradient id="SVGID_1_" cx="155.4953" cy="160.4991" r="77.4846" gradientUnits="userSpaceOnUse">
			<stop  offset="0" style="stop-color:#AABC44"/>
			<stop  offset="0.9359" style="stop-color:#AABC44;stop-opacity:0.0641"/>
			<stop  offset="1" style="stop-color:#AABC44;stop-opacity:0"/>
		</radialGradient>
		<use xlink:href="#SVGID_28_"  overflow="visible" fill-rule="evenodd" clip-rule="evenodd" fill="url(#SVGID_1_)"/>
		<use xlink:href="#SVGID_29_"  overflow="visible" fill="#B7C450"/>
		<use xlink:href="#SVGID_30_"  overflow="visible" fill="#B7C450"/>
		<use xlink:href="#SVGID_31_"  overflow="visible" fill="#B7C450"/>
		<use xlink:href="#SVGID_32_"  overflow="visible" fill="#B7C450"/>
		<use xlink:href="#SVGID_33_"  overflow="visible" fill="#B7C450"/>
		<use xlink:href="#SVGID_34_"  overflow="visible" fill="#B7C450"/>
		<use xlink:href="#SVGID_35_"  overflow="visible" fill="#B7C450"/>
		<clipPath id="SVGID_2_">
			<use xlink:href="#SVGID_9_"  overflow="visible"/>
		</clipPath>
		<clipPath id="SVGID_3_" clip-path="url(#SVGID_2_)">
			<use xlink:href="#SVGID_10_"  overflow="visible"/>
		</clipPath>
		<clipPath id="SVGID_4_" clip-path="url(#SVGID_3_)">
			<use xlink:href="#SVGID_11_"  overflow="visible"/>
		</clipPath>
		<clipPath id="SVGID_5_" clip-path="url(#SVGID_4_)">
			<use xlink:href="#SVGID_12_"  overflow="visible"/>
		</clipPath>
		<clipPath id="SVGID_6_" clip-path="url(#SVGID_5_)">
			<use xlink:href="#SVGID_13_"  overflow="visible"/>
		</clipPath>
		<clipPath id="SVGID_7_" clip-path="url(#SVGID_6_)">
			<use xlink:href="#SVGID_14_"  overflow="visible"/>
		</clipPath>
		<clipPath id="SVGID_8_" clip-path="url(#SVGID_7_)">
			<use xlink:href="#SVGID_15_"  overflow="visible"/>
		</clipPath>
		<clipPath id="SVGID_36_" clip-path="url(#SVGID_8_)">
			<use xlink:href="#SVGID_16_"  overflow="visible"/>
		</clipPath>
		<clipPath id="SVGID_37_" clip-path="url(#SVGID_36_)">
			<use xlink:href="#SVGID_17_"  overflow="visible"/>
		</clipPath>
		<clipPath id="SVGID_38_" clip-path="url(#SVGID_37_)">
			<use xlink:href="#SVGID_18_"  overflow="visible"/>
		</clipPath>
		<clipPath id="SVGID_39_" clip-path="url(#SVGID_38_)">
			<use xlink:href="#SVGID_19_"  overflow="visible"/>
		</clipPath>
		<clipPath id="SVGID_40_" clip-path="url(#SVGID_39_)">
			<use xlink:href="#SVGID_20_"  overflow="visible"/>
		</clipPath>
		<clipPath id="SVGID_41_" clip-path="url(#SVGID_40_)">
			<use xlink:href="#SVGID_21_"  overflow="visible"/>
		</clipPath>
		<clipPath id="SVGID_42_" clip-path="url(#SVGID_41_)">
			<use xlink:href="#SVGID_22_"  overflow="visible"/>
		</clipPath>
		<clipPath id="SVGID_43_" clip-path="url(#SVGID_42_)">
			<use xlink:href="#SVGID_23_"  overflow="visible"/>
		</clipPath>
		<clipPath id="SVGID_44_" clip-path="url(#SVGID_43_)">
			<use xlink:href="#SVGID_24_"  overflow="visible"/>
		</clipPath>
		<clipPath id="SVGID_45_" clip-path="url(#SVGID_44_)">
			<use xlink:href="#SVGID_25_"  overflow="visible"/>
		</clipPath>
		<clipPath id="SVGID_46_" clip-path="url(#SVGID_45_)">
			<use xlink:href="#SVGID_26_"  overflow="visible"/>
		</clipPath>
		<clipPath id="SVGID_47_" clip-path="url(#SVGID_46_)">
			<use xlink:href="#SVGID_27_"  overflow="visible"/>
		</clipPath>
		<clipPath id="SVGID_48_" clip-path="url(#SVGID_47_)">
			<use xlink:href="#SVGID_28_"  overflow="visible"/>
		</clipPath>
		<clipPath id="SVGID_49_" clip-path="url(#SVGID_48_)">
			<use xlink:href="#SVGID_29_"  overflow="visible"/>
		</clipPath>
		<clipPath id="SVGID_50_" clip-path="url(#SVGID_49_)">
			<use xlink:href="#SVGID_30_"  overflow="visible"/>
		</clipPath>
		<clipPath id="SVGID_51_" clip-path="url(#SVGID_50_)">
			<use xlink:href="#SVGID_31_"  overflow="visible"/>
		</clipPath>
		<clipPath id="SVGID_52_" clip-path="url(#SVGID_51_)">
			<use xlink:href="#SVGID_32_"  overflow="visible"/>
		</clipPath>
		<clipPath id="SVGID_53_" clip-path="url(#SVGID_52_)">
			<use xlink:href="#SVGID_33_"  overflow="visible"/>
		</clipPath>
		<clipPath id="SVGID_54_" clip-path="url(#SVGID_53_)">
			<use xlink:href="#SVGID_34_"  overflow="visible"/>
		</clipPath>
		<clipPath id="SVGID_55_" clip-path="url(#SVGID_54_)">
			<use xlink:href="#SVGID_35_"  overflow="visible"/>
		</clipPath>
	</g>
	<g id="face">
		<g id="eye_5_">
			<g>
				<defs>
					<path id="SVGID_65_" d="M106.91,128.557c11.361-2,22.981,6.032,25.953,17.942c2.974,11.908-3.825,23.186-15.186,25.186
						s-22.983-6.032-25.955-17.942C88.75,141.833,95.549,130.557,106.91,128.557L106.91,128.557z"/>
				</defs>
				<use xlink:href="#SVGID_65_"  overflow="visible" fill-rule="evenodd" clip-rule="evenodd"/>
				<clipPath id="SVGID_56_">
					<use xlink:href="#SVGID_65_"  overflow="visible"/>
				</clipPath>
			</g>
			<radialGradient id="SVGID_57_" cx="113.7066" cy="145.8837" r="21.5712" gradientUnits="userSpaceOnUse">
				<stop  offset="0" style="stop-color:#FFFFFF"/>
				<stop  offset="0.2115" style="stop-color:#FFFEFC"/>
				<stop  offset="0.3677" style="stop-color:#FDFAF3"/>
				<stop  offset="0.5062" style="stop-color:#FBF3E3"/>
				<stop  offset="0.6343" style="stop-color:#F7E9CC"/>
				<stop  offset="0.7553" style="stop-color:#F3DDAF"/>
				<stop  offset="0.8711" style="stop-color:#EECE8B"/>
				<stop  offset="0.9807" style="stop-color:#E7BC61"/>
				<stop  offset="1" style="stop-color:#E6B959"/>
			</radialGradient>
			<path fill-rule="evenodd" clip-rule="evenodd" fill="url(#SVGID_57_)" d="M108.324,124.32c11.361-2,22.981,6.032,25.953,17.942
				c2.974,11.91-3.825,23.186-15.186,25.186s-22.981-6.032-25.955-17.94C90.163,137.598,96.962,126.322,108.324,124.32
				L108.324,124.32z"/>
			<g>
				<defs>
					<path id="SVGID_60_" d="M92.46,143.003c0.384-9.269,6.609-17.053,15.863-18.683c6.951-1.224,13.99,1.321,19.095,6.199
						L92.46,143.003L92.46,143.003z"/>
				</defs>
				<defs>
					<path id="SVGID_68_" d="M119.24,137.671c4.455-0.766,9.012,2.308,10.177,6.867c1.167,4.558-1.5,8.875-5.954,9.64
						c-4.456,0.766-9.012-2.309-10.177-6.867C112.119,142.753,114.786,138.436,119.24,137.671L119.24,137.671z"/>
				</defs>
				<defs>
					<path id="SVGID_69_" d="M117.591,138.181c3.19,1.691,5.063,4.542,4.185,6.369s-4.178,1.938-7.367,0.247
						c-3.188-1.689-5.062-4.542-4.183-6.369C111.103,136.601,114.403,136.49,117.591,138.181L117.591,138.181z"/>
				</defs>
				<use xlink:href="#SVGID_60_"  overflow="visible" fill-rule="evenodd" clip-rule="evenodd" fill="#3C5211"/>
				<use xlink:href="#SVGID_68_"  overflow="visible" fill-rule="evenodd" clip-rule="evenodd"/>
				<use xlink:href="#SVGID_69_"  overflow="visible" fill-rule="evenodd" clip-rule="evenodd" fill="#FFFFFF"/>
				<clipPath id="SVGID_58_">
					<use xlink:href="#SVGID_60_"  overflow="visible"/>
				</clipPath>
				<clipPath id="SVGID_59_" clip-path="url(#SVGID_58_)">
					<use xlink:href="#SVGID_68_"  overflow="visible"/>
				</clipPath>
				<clipPath id="SVGID_61_" clip-path="url(#SVGID_59_)">
					<use xlink:href="#SVGID_69_"  overflow="visible"/>
				</clipPath>
			</g>
		</g>
		<g id="eye_4_">
			<g>
				<defs>
					<path id="SVGID_73_" d="M211.892,141.565c4.598,9.89-0.212,22.361-10.745,27.851c-10.531,5.49-22.797,1.922-27.395-7.97
						c-4.598-9.89,0.214-22.361,10.745-27.851C195.031,128.105,207.296,131.673,211.892,141.565L211.892,141.565z"/>
				</defs>
				<use xlink:href="#SVGID_73_"  overflow="visible" fill-rule="evenodd" clip-rule="evenodd"/>
				<clipPath id="SVGID_62_">
					<use xlink:href="#SVGID_73_"  overflow="visible"/>
				</clipPath>
			</g>
			<radialGradient id="SVGID_63_" cx="194.191" cy="147.4829" r="20.6511" gradientUnits="userSpaceOnUse">
				<stop  offset="0" style="stop-color:#FFFFFF"/>
				<stop  offset="0.2115" style="stop-color:#FFFEFC"/>
				<stop  offset="0.3677" style="stop-color:#FDFAF3"/>
				<stop  offset="0.5062" style="stop-color:#FBF3E3"/>
				<stop  offset="0.6343" style="stop-color:#F7E9CC"/>
				<stop  offset="0.7553" style="stop-color:#F3DDAF"/>
				<stop  offset="0.8711" style="stop-color:#EECE8B"/>
				<stop  offset="0.9807" style="stop-color:#E7BC61"/>
				<stop  offset="1" style="stop-color:#E6B959"/>
			</radialGradient>
			<path fill-rule="evenodd" clip-rule="evenodd" fill="url(#SVGID_63_)" d="M213.261,137.542
				c4.598,9.89-0.214,22.361-10.745,27.851c-10.533,5.49-22.797,1.922-27.395-7.97c-4.598-9.89,0.214-22.361,10.745-27.851
				C196.399,124.082,208.663,127.65,213.261,137.542L213.261,137.542z"/>
			<path fill-rule="evenodd" clip-rule="evenodd" fill="#3C5211" d="M199.495,127.299c9.019,1.523,15.085,8.805,15.461,17.473
				l-34.069-11.677C185.863,128.534,192.719,126.153,199.495,127.299L199.495,127.299z"/>
			<path fill-rule="evenodd" clip-rule="evenodd" d="M196.23,144.194c1.802,3.785-0.083,8.559-4.214,10.66
				c-4.129,2.103-8.939,0.736-10.741-3.049c-1.802-3.787,0.083-8.56,4.214-10.661C189.618,139.042,194.428,140.407,196.23,144.194
				L196.23,144.194z"/>
			<path fill-rule="evenodd" clip-rule="evenodd" fill="#FEFCF8" d="M184.324,143.073c2.672,1.49,4.24,4.001,3.504,5.61
				c-0.736,1.61-3.497,1.707-6.169,0.217c-2.671-1.488-4.238-4.001-3.502-5.61C178.891,141.682,181.654,141.584,184.324,143.073
				L184.324,143.073z"/>
		</g>
		<path fill-rule="evenodd" clip-rule="evenodd" d="M140.929,167.93c0.917-0.616,3.033,0.927,4.73,3.447
			c1.696,2.52,2.328,5.063,1.412,5.68c-0.917,0.616-3.033-0.926-4.73-3.447C140.644,171.09,140.012,168.547,140.929,167.93
			L140.929,167.93z"/>
		<path fill-rule="evenodd" clip-rule="evenodd" d="M167.598,168.113c-0.924-0.592-3.061,0.891-4.772,3.31
			c-1.712,2.419-2.349,4.86-1.426,5.452c0.925,0.592,3.063-0.889,4.773-3.308C167.884,171.146,168.523,168.705,167.598,168.113
			L167.598,168.113z"/>
		<path fill-rule="evenodd" clip-rule="evenodd" d="M163.484,216.991c8.816,0,17.134-2.106,24.504-5.822
			c-8.14,6.758-18.595,10.823-30.001,10.823c-25.174,0-45.724-19.793-46.941-44.664
			C117.509,200.213,138.529,216.991,163.484,216.991L163.484,216.991z"/>
		<path fill-rule="evenodd" clip-rule="evenodd" fill="#FFFFFF" d="M117.32,191.444c6.503,10.347,16.379,18.348,28.093,22.465
			c-0.896,1.82-2.754,3.085-4.919,3.085c-2.155,0-4.002-1.252-4.904-3.056c-1.775,1.603-4.117,2.587-6.695,2.587
			c-5.523,0-10-4.476-10-10c0-1.655,0.41-3.211,1.12-4.584c-0.174,0.017-0.342,0.052-0.521,0.052c-3.039,0-5.501-2.462-5.501-5.501
			C113.993,194.229,115.363,192.286,117.32,191.444L117.32,191.444z"/>
	</g>
</g>
</svg>
