<?xml version="1.0" encoding="iso-8859-1"?>
<!-- Generator: Adobe Illustrator 18.1.1, SVG Export Plug-In . SVG Version: 6.00 Build 0)  -->
<svg version="1.1" id="Layer_1" xmlns="http://www.w3.org/2000/svg" xmlns:xlink="http://www.w3.org/1999/xlink" x="0px" y="0px"
	 width="324px" height="324px" viewBox="0 0 324 324" enable-background="new 0 0 324 324" xml:space="preserve">
<g id="virus-1">
	<g id="body">
		<path fill-rule="evenodd" clip-rule="evenodd" d="M88.007,5.516c8.293-0.071,16.682,0.026,24.818,1.82
			c3.741,0.825,7.413,1.994,10.739,3.928c3.475,2.02,6.338,4.849,9.27,7.559c2.841,2.627,5.816,5.211,9.324,6.912
			c3.588,1.74,7.418,2.049,11.329,1.461c4.096-0.615,8.006-1.975,11.993-3.045c4.197-1.126,8.254-1.255,12.554-0.709
			c3.988,0.506,7.998,1.432,12.04,1.18c3.876-0.242,7.27-1.712,10.363-4.015c3.05-2.271,5.734-4.996,8.913-7.1
			c3.274-2.167,6.86-3.523,10.726-4.181c13.121-2.231,26.417,3.44,33.713,14.605c3.759,5.752,5.604,12.555,5.594,19.408
			c-0.005,3.778-0.574,7.573-1.771,11.161c-1.24,3.715-3.303,7.021-5.126,10.462c-0.862,1.627-1.582,3.289-2.259,4.999
			c-0.25,0.632-0.571,1.283-0.672,1.962c-0.122,0.818,0.353,1.297,0.781,1.943c1.057,1.595,1.527,3.668,1.948,5.51
			c0.46,2.014,0.779,4.059,1.02,6.11c0.493,4.178,0.672,8.385,1.103,12.569c0.404,3.916,0.889,8.001,2.538,11.618
			c3.319,7.279,9.228,13.248,14.804,18.833c5.649,5.658,11.598,11.272,15.748,18.18c4.373,7.279,5.513,15.742,7.166,23.925
			c0.85,4.205,1.948,8.358,2.504,12.617c0.489,3.741,0.77,7.559,0.659,11.334c-0.105,3.599-0.636,7.244-2.105,10.558
			c-1.538,3.467-4.178,6.451-6.763,9.181c-5.48,5.786-11.901,10.721-18.317,15.415c-3.339,2.443-6.706,4.916-10.237,7.076
			c-3.423,2.094-7.228,3.443-10.668,5.504c-2.479,1.486-7.264,4.751-5.729,8.173c0.765,1.706,1.104,3.566,1.437,5.394
			c0.395,2.171,0.708,4.354,0.95,6.547c0.467,4.235,0.78,8.503,0.862,12.764c0.08,4.142,0.093,8.506-0.838,12.565
			c-0.881,3.841-3.183,7.133-5.78,10.025c-2.529,2.817-5.406,5.313-8.467,7.537c-6.389,4.642-13.574,8.302-21.036,10.871
			c-7.72,2.658-15.987,4.233-24.173,3.75c-7.741-0.457-15.075-3.049-21.512-7.348c-3.086-2.061-5.945-4.468-8.49-7.17
			c-2.555-2.711-4.852-5.794-5.975-9.389c-1.222-3.914-1.458-8.083-2.029-12.123c-0.516-3.655-1.137-8.272-3.86-11.026
			c-0.648-0.656-1.465-1.234-2.257-1.706c-0.934-0.556-1.662-0.556-2.634-0.092c-1.66,0.793-3.319,1.649-4.786,2.768
			c-1.633,1.245-3.074,2.723-4.656,4.029c-1.508,1.244-3.145,2.314-4.851,3.266c-3.35,1.868-6.937,3.35-10.515,4.716
			c-3.798,1.45-7.693,2.674-11.684,3.466c-7.847,1.558-15.799,1.094-23.453-1.211c-7.296-2.197-14.56-5.957-19.96-11.412
			c-2.663-2.69-4.385-5.678-5.125-9.404c-0.366-1.841-0.539-3.709-0.778-5.568c-0.266-2.072-0.692-4.118-1.085-6.168
			c-0.787-4.097-1.387-8.326-1.223-12.508c0.143-3.622,1.149-6.918,3.16-9.94c3.868-5.811,9.864-9.719,14.771-14.557
			c2.461-2.426,4.714-5.117,6.249-8.233c0.406-0.824,1.87-3.255,1.044-3.953c-0.624-0.527-1.484-0.877-2.151-1.373
			c-0.779-0.58-1.512-1.222-2.211-1.897c-2.924-2.825-5.47-5.998-8.45-8.78c-1.496-1.397-3.028-2.755-4.555-4.118
			c-1.411-1.259-3.077-2.473-4.172-4.03c-2.176-3.093-3.23-7.218-4.072-10.847c-0.97-4.179-1.561-8.432-2.222-12.667
			c-0.664-4.252-1.396-8.49-2.66-12.611c-1.252-4.081-2.573-8.135-3.669-12.262c-2.177-8.198-3.797-16.692-3.569-25.209
			c0.221-8.269,2.86-16.024,7.226-23.013c4.107-6.575,9.399-12.298,13.702-18.736c-2.35-1.093-4.874-2.517-5.972-5.002
			c-0.591-1.337-0.698-2.848-1.204-4.222c-0.546-1.481-0.766-2.995-0.848-4.567c-0.173-3.312,0.165-6.629,0.256-9.938
			c0.086-3.128,0.161-6.248,0.667-9.343c1.685-10.307,7.182-19.83,15.806-25.846c2.872-2.003,6-3.595,9.254-4.874
			c1.607-0.632,3.209-1.074,4.949-1.017C84.932,6.056,86.64,6.335,88.007,5.516C97.567,5.434,86.435,6.457,88.007,5.516z"/>
		
			<radialGradient id="SVGID_1_" cx="169.1373" cy="162.4015" r="134.7722" gradientTransform="matrix(1 0 0 1.5 0 -81.2008)" gradientUnits="userSpaceOnUse">
			<stop  offset="0" style="stop-color:#698F1E"/>
			<stop  offset="0.2476" style="stop-color:#668B1D"/>
			<stop  offset="0.5119" style="stop-color:#5C7E1A"/>
			<stop  offset="0.7829" style="stop-color:#4D6916"/>
			<stop  offset="1" style="stop-color:#3C5211"/>
		</radialGradient>
		<path fill-rule="evenodd" clip-rule="evenodd" fill="url(#SVGID_1_)" d="M84.34,15.266c8.217-1.408,16.79-1.025,24.852,1.094
			c8.488,2.231,14.265,7.096,20.944,12.474c6.86,5.524,13.852,7.907,22.701,6.86c8.886-1.052,17.421-3.872,26.467-3.114
			c8.223,0.689,16.705,2.148,23.843-3.063c3.184-2.325,5.839-5.328,9.211-7.404c3.088-1.902,6.644-2.996,10.237-3.394
			c7.008-0.776,14.908,0.928,19.915,6.155c5.501,5.742,8.004,13.801,6.933,21.639c-0.595,4.355-2.103,8.546-3.929,12.526
			c-0.787,1.716-1.551,3.493-2.834,4.903c-1.244,1.368-2.95,2.3-3.978,3.867c-0.898,1.369-1.269,2.615-0.424,3.956
			c1.072,1.701,2.281,3.084,3.062,4.992c1.547,3.781,2.083,7.936,2.528,11.968c0.921,8.345,1.212,16.822,4.743,24.59
			c3.104,6.828,8.032,12.575,13.128,17.992c5.196,5.524,10.696,10.814,14.991,17.103c4.803,7.033,7.706,14.835,9.341,23.163
			c1.571,8.006,4.796,17.986,2.26,26.069c-2.436,7.763-10.537,14.033-16.658,18.87c-6.846,5.41-14.121,10.382-21.504,15.028
			c-3.788,2.384-7.758,4.474-11.514,6.907c-1.323,0.857-3.009,1.76-4.093,2.932c-1.282,1.386-0.69,2.745-0.41,4.449
			c1.513,9.21,2.683,18.491,4.023,27.729c1.11,7.649-1.427,16.38-7.638,21.305c-6.58,5.217-14.467,9.045-22.325,11.901
			c-8.156,2.965-16.765,4.768-25.368,2.757c-7.128-1.666-14.169-5.221-18.869-10.957c-5.077-6.196-5.872-14.173-7.392-21.744
			c-0.784-3.903-1.739-8.104-4.462-11.157c-2.269-2.544-6.213-4.069-9.547-4.582c-6.748-1.038-12.154,4.857-17.161,8.376
			c-12.568,8.834-32.219,16.283-46.739,8.034c-3.607-2.049-6.693-4.84-9.968-7.356c-0.879-0.675-2.7-1.468-3.31-2.387
			c-0.86-1.293-1.045-4.145-1.444-5.616c-2.229-8.216-4.92-16.625,0.267-24.259c4.681-6.89,11.796-11.444,17.065-17.801
			c2.598-3.135,4.636-6.686,5.815-10.594c0.48-1.592,1.345-3.932,1.183-5.6c-0.172-1.777-2.018-2.12-3.478-3.146
			c-6.954-4.888-13.734-11.15-18.981-17.837c-2.611-3.327-3.197-6.839-4.2-10.848c-1.17-4.675-2.34-9.35-3.51-14.024
			c-2.148-8.581-5.135-16.973-6.93-25.631c-1.771-8.541-3.395-18.192-0.904-26.731c2.339-8.018,6.569-16.121,11.741-22.671
			c2.526-3.199,5.81-5.64,8.404-8.765c1.055-1.271,2.045-2.709,2.563-4.294c0.588-1.801-0.291-1.586-1.879-2.348
			c-1.66-0.797-3.038-1.862-4.41-3.087c-1.24-1.107-3.225-2.323-4.145-3.718c-1.603-2.43-1.428-7.306-1.517-10.096
			c-0.256-7.997,1.435-16.514,5.99-23.215c1.939-2.853,4.405-5.058,7.463-6.649C77.829,19.078,81.532,17.877,84.34,15.266
			C93.86,13.635,81.106,18.274,84.34,15.266z"/>
		<radialGradient id="SVGID_2_" cx="168.0135" cy="161.9388" r="117.446" gradientUnits="userSpaceOnUse">
			<stop  offset="0" style="stop-color:#BBD77B"/>
			<stop  offset="1" style="stop-color:#5B7D17"/>
		</radialGradient>
		<path fill-rule="evenodd" clip-rule="evenodd" fill="url(#SVGID_2_)" d="M96.599,30.433c4.084,0.044,8.124,0.79,11.923,2.299
			c3.174,1.261,6.111,3.009,8.979,4.846c5.845,3.745,11.887,7.97,19.095,8.093c4.278,0.073,8.494-0.805,12.724-1.308
			c2.824-0.335,5.472-0.165,8.279,0.076c6.218,0.536,12.478,0.725,18.718,0.695c6.741-0.033,13.635-0.222,20.259-1.59
			c2.584-0.534,4.937-1.358,7.233-2.662c2.844-1.615,5.559-3.447,8.395-5.077c2.952-1.698,6.067-3.299,9.408-4.067
			c1.534-0.352,3.126-0.517,4.694-0.329c1.605,0.192,2.816,0.841,4.231,1.538c0.865,0.426,1.816,0.595,2.667,1.098
			c0.689,0.407,1.297,0.922,1.829,1.52c1.088,1.221,1.881,2.674,2.959,3.906c0.649,0.742,0.467,2.034,0.522,3.007
			c0.065,1.167,0.124,2.334,0.145,3.502c0.043,2.273-0.044,4.564-0.505,6.796c-0.394,1.906-0.996,4.038-2.437,5.422
			c-1.213,1.165-2.773,2.037-3.813,3.375c-0.796,1.025-1.102,2.506-1.374,3.75c-0.34,1.555-0.531,3.141-0.647,4.727
			c-0.524,7.143,0.23,14.457,1.505,21.487c0.522,2.879,1.1,5.827,2.16,8.565c1.686,4.355,4.646,8.049,6.718,12.207
			c2.183,4.38,3.785,9.11,5.556,13.668c1.726,4.444,3.461,8.888,5.423,13.234c1.899,4.206,4.029,8.296,6.462,12.22
			c1.72,2.775,3.485,5.522,5.074,8.376c3.918,7.038,6.741,14.76,6.688,22.908c-0.027,4.098-0.691,8.254-2.22,12.068
			c-1.408,3.514-3.378,6.794-5.536,9.894c-4.483,6.443-9.897,12.38-15.894,17.446c-2.384,2.014-4.837,3.655-7.642,5.027
			c-2.799,1.369-5.833,2.694-7.911,5.104c-1.04,1.206-1.745,2.648-2.056,4.211c-0.091,0.459-0.195,0.818-0.009,1.207
			c0.148,0.31,0.462,0.61,0.644,0.909c0.444,0.733,0.769,1.533,1.013,2.353c1.078,3.631,0.783,7.618,0.503,11.342
			c-0.152,2.017-0.352,4.031-0.48,6.05c-0.1,1.569-0.081,3.144-0.266,4.707c-0.379,3.211-1.353,6.344-2.68,9.285
			c-2.836,6.284-7.362,11.933-13.03,15.884c-5.921,4.128-13.152,6.152-20.328,4.857c-6.456-1.165-12.605-4.362-17.595-8.568
			c-8.711-7.342-13.827-17.89-22.295-25.442c-4.401-3.925-9.646-6.63-15.428-7.829c-1.763-0.366-3.552-0.601-5.347-0.73
			c-0.698-0.05-1.57-0.266-2.137,0.096c-0.323,0.206-0.609,0.543-0.913,0.782c-1.992,1.565-4.24,2.832-6.487,3.989
			c-5.496,2.828-12.038,5.527-18.344,5.113c-1.322-0.087-2.647-0.342-3.863-0.881c-0.66-0.292-1.228-0.619-1.919-0.841
			c-0.922-0.296-1.821-0.665-2.681-1.109c-2.989-1.542-5.427-3.997-6.934-7.005c-3.295-6.577-1.881-14.436,1.739-20.559
			c3.139-5.31,7.505-9.797,11.296-14.63c4.111-5.241,7.801-11.021,9.054-17.665c1.322-7.01-0.062-14.64-4.132-20.535
			c-7.847-11.366-22.219-15.648-30.775-26.288c-9.236-11.486-11.754-27.474-9.46-41.723c2.139-13.285,8.564-26.937,19.715-34.962
			c0.615-0.442,1.243-0.865,1.885-1.267c0.392-0.246,0.672-0.32,0.772-0.756c0.16-0.698-0.36-0.675-0.891-0.87
			c-1.424-0.522-2.768-1.253-3.981-2.162c-2.535-1.899-4.441-4.534-5.682-7.432c-2.575-6.018-2.441-13.178,0.194-19.151
			c1.433-3.249,3.458-6.044,6.695-7.654C89.492,33.27,93.38,32.586,96.599,30.433z"/>
		<path opacity="0.5" fill-rule="evenodd" clip-rule="evenodd" fill="#E3F46E" d="M234.93,83.27c0-3.693,1.964-7.188,5.103-9.13
			c3.489,5.806,3.718,13.226,4.351,19.784C239.061,93.289,234.93,88.628,234.93,83.27z M237.078,186.802
			c5.851,0,10.74,4.89,10.74,10.74c0,5.85-4.89,10.74-10.74,10.74c-5.85,0-10.74-4.89-10.74-10.74
			C226.338,191.692,231.227,186.802,237.078,186.802z M185.097,266.28c0-8.316,12.888-8.293,12.888,0
			C197.986,274.569,185.097,274.608,185.097,266.28z M213.451,155.444c0-8.317,12.887-8.295,12.886,0
			C226.338,163.732,213.451,163.77,213.451,155.444z M256.411,158.88c0-8.316,12.888-8.293,12.888,0
			C269.299,167.169,256.411,167.208,256.411,158.88z M216.887,293.341c0-5.684,2.401-11.204,6.557-15.081
			c2.121-1.979,4.66-3.505,7.406-4.441c1.295-0.441,2.63-0.746,3.985-0.923c0.652-0.085,1.648-0.352,2.286-0.168
			c1.097,0.317,0.946,0.076,1.144,1.442c0.797,5.498-0.741,12.278-3.97,16.933c-3.465,4.995-10.195,8.31-15.439,10.99
			C217.574,299.363,216.887,296.358,216.887,293.341z M179.941,266.278c0,5.85-4.889,10.74-10.739,10.74
			c-5.85,0-10.74-4.89-10.74-10.74c0-5.85,4.891-10.739,10.74-10.739C175.052,255.539,179.941,260.428,179.941,266.278z
			 M124.523,77.686c8.317,0,8.294,12.888,0,12.888C116.235,90.574,116.196,77.686,124.523,77.686z M124.093,206.996
			c0-8.317,12.888-8.295,12.888,0C136.981,215.284,124.093,215.322,124.093,206.996z M89.296,256.398
			c-5.85,0-10.74-4.89-10.74-10.74c0-5.85,4.891-10.739,10.74-10.739c5.85,0,10.74,4.889,10.74,10.739
			C100.036,251.508,95.147,256.398,89.296,256.398z M86.719,142.983c5.851,0,10.74,4.89,10.74,10.74c0,5.85-4.89,10.74-10.74,10.74
			c-5.851,0-10.74-4.89-10.74-10.74C75.978,147.873,80.867,142.983,86.719,142.983z M84.569,46.749
			c-7.127,0-13.867-3.803-17.58-9.881c-0.779-1.276-1.85-3.006-2.057-4.501c-0.25-1.803,1.39-3.904,2.449-5.395
			c2.281-3.211,5.137-5.228,8.653-6.913c1.648-0.79,3.337-1.506,4.931-2.406c1.968-1.111,3.125-2.393,5.4-2.69
			c4.494-0.586,10.088-1.142,14.544-0.059c1.189,0.289,1.312,0.518,1.905,1.643c0.484,0.917,0.893,1.87,1.235,2.849
			c0.704,2.013,1.085,4.132,1.131,6.264c0.073,3.398-0.681,6.786-2.225,9.817C99.466,42.325,92.256,46.749,84.569,46.749z
			 M156.742,192.816c-14.174,0-20.763-18.326-9.869-27.368c10.841-8.998,27.501,0.712,25.103,14.558
			C170.71,187.318,164.165,192.816,156.742,192.816z M169.632,70.383c0,8.315-12.888,8.294-12.888,0
			C156.744,62.093,169.632,62.056,169.632,70.383z M200.562,51.907c-7.281,0-13.752-5.293-15.17-12.44
			c-0.222-1.118-0.954-5.422,0.048-6.255c0.176-0.146,2.362,0.144,2.616,0.152c1.202,0.041,2.406,0.044,3.607-0.022
			c4.572-0.251,8.584-1.557,12.203-4.414c0.923-0.729,1.807-1.503,2.697-2.27c0.509-0.439,2.515-2.704,3.153-2.663
			c1.237,0.081,3.21,3.115,3.787,3.992c2.141,3.259,2.959,7.268,2.294,11.109C214.527,46.416,207.989,51.907,200.562,51.907z"/>
	</g>
	<g id="eye">
		<path fill-rule="evenodd" clip-rule="evenodd" d="M118.668,100.174c13.616,0,24.655,10.927,24.655,24.405
			c0,13.479-11.039,24.405-24.655,24.405c-13.617,0-24.656-10.927-24.656-24.405C94.012,111.1,105.051,100.174,118.668,100.174
			L118.668,100.174z"/>
		<radialGradient id="SVGID_3_" cx="119.7884" cy="119.0325" r="24.531" gradientUnits="userSpaceOnUse">
			<stop  offset="0" style="stop-color:#FFFFFF"/>
			<stop  offset="0.2115" style="stop-color:#FFFEFC"/>
			<stop  offset="0.3677" style="stop-color:#FDFAF3"/>
			<stop  offset="0.5062" style="stop-color:#FBF3E3"/>
			<stop  offset="0.6343" style="stop-color:#F7E9CC"/>
			<stop  offset="0.7553" style="stop-color:#F3DDAF"/>
			<stop  offset="0.8711" style="stop-color:#EECE8B"/>
			<stop  offset="0.9807" style="stop-color:#E7BC61"/>
			<stop  offset="1" style="stop-color:#E6B959"/>
		</radialGradient>
		<path fill-rule="evenodd" clip-rule="evenodd" fill="url(#SVGID_3_)" d="M119.788,94.627c13.617,0,24.656,10.927,24.656,24.407
			c0,13.479-11.039,24.405-24.656,24.405c-13.616,0-24.655-10.927-24.655-24.405C95.133,105.553,106.172,94.627,119.788,94.627
			L119.788,94.627z"/>
		<path fill-rule="evenodd" clip-rule="evenodd" d="M120.142,105c7.737,0,14.01,6.208,14.01,13.867
			c0,7.659-6.273,13.867-14.01,13.867c-7.736,0-14.008-6.208-14.008-13.867C106.133,111.208,112.406,105,120.142,105L120.142,105z"
			/>
		<path fill-rule="evenodd" clip-rule="evenodd" fill="#FFFFFF" d="M126.969,111.388c2.786,2.093,3.952,5.053,2.603,6.61
			c-1.348,1.557-4.699,1.123-7.485-0.97c-2.788-2.093-3.953-5.053-2.604-6.61C120.83,108.861,124.183,109.296,126.969,111.388
			L126.969,111.388z M121.767,130.922c-0.012-1.218-0.624-2.187-1.364-2.165c-0.741,0.022-1.331,1.026-1.317,2.244
			c0.012,1.217,0.624,2.185,1.365,2.164C121.191,133.143,121.78,132.139,121.767,130.922L121.767,130.922z"/>
	</g>
	<g id="eye_1_">
		<path fill-rule="evenodd" clip-rule="evenodd" d="M197.117,66.893c13.616,0,24.655,10.927,24.655,24.405
			s-11.039,24.407-24.655,24.407c-13.617,0-24.656-10.928-24.656-24.407S183.5,66.893,197.117,66.893L197.117,66.893z"/>
		
			<radialGradient id="SVGID_4_" cx="198.2371" cy="85.7519" r="24.531" gradientTransform="matrix(1 0 0 0.8 0 17.1504)" gradientUnits="userSpaceOnUse">
			<stop  offset="0" style="stop-color:#FFFFFF"/>
			<stop  offset="0.2115" style="stop-color:#FFFEFC"/>
			<stop  offset="0.3677" style="stop-color:#FDFAF3"/>
			<stop  offset="0.5062" style="stop-color:#FBF3E3"/>
			<stop  offset="0.6343" style="stop-color:#F7E9CC"/>
			<stop  offset="0.7553" style="stop-color:#F3DDAF"/>
			<stop  offset="0.8711" style="stop-color:#EECE8B"/>
			<stop  offset="0.9807" style="stop-color:#E7BC61"/>
			<stop  offset="1" style="stop-color:#E6B959"/>
		</radialGradient>
		<path fill-rule="evenodd" clip-rule="evenodd" fill="url(#SVGID_4_)" d="M198.236,61.346c13.617,0,24.656,10.927,24.656,24.407
			c0,13.479-11.039,24.405-24.656,24.405c-13.616,0-24.655-10.927-24.655-24.405C173.582,72.273,184.621,61.346,198.236,61.346
			L198.236,61.346z"/>
		<path fill-rule="evenodd" clip-rule="evenodd" d="M198.033,76.16c4.951,0,8.965,3.973,8.965,8.875
			c0,4.902-4.013,8.875-8.965,8.875c-4.951,0-8.966-3.973-8.966-8.875C189.067,80.133,193.082,76.16,198.033,76.16L198.033,76.16z"
			/>
		<path fill-rule="evenodd" clip-rule="evenodd" fill="#FFFFFF" d="M202.427,80.287c2.144,1.9,3.04,4.588,2.004,6.002
			c-1.038,1.415-3.616,1.02-5.758-0.881c-2.144-1.9-3.04-4.588-2.004-6.002C197.707,77.992,200.285,78.387,202.427,80.287
			L202.427,80.287z M200.608,91.509c-0.075-1.081-0.785-1.876-1.586-1.773c-0.801,0.103-1.389,1.064-1.314,2.145
			c0.075,1.083,0.785,1.877,1.586,1.774C200.095,93.553,200.684,92.592,200.608,91.509L200.608,91.509z"/>
	</g>
	<path d="M221.103,153.498l-86.706,31.597l1.916-9.995l85.579-23.058L221.103,153.498L221.103,153.498z M224.058,159.985
		l-7.132-13.474l3.136-0.953l7.132,13.472L224.058,159.985L224.058,159.985z"/>
</g>
</svg>
