<?xml version="1.0" encoding="iso-8859-1"?>
<!-- Generator: Adobe Illustrator 18.1.1, SVG Export Plug-In . SVG Version: 6.00 Build 0)  -->
<svg version="1.1" id="Layer_1" xmlns="http://www.w3.org/2000/svg" xmlns:xlink="http://www.w3.org/1999/xlink" x="0px" y="0px"
	 width="324px" height="324px" viewBox="0 0 324 324" enable-background="new 0 0 324 324" xml:space="preserve">
<g id="virus-2">
	<path fill-rule="evenodd" clip-rule="evenodd" d="M112.999,41.006c15.282-0.156,32.196-3.277,47.015,1.636
		c7.637,2.532,13.245,5.306,21.468,3.894c6.172-1.06,12.35-1.999,18.581-2.645c24.963-2.59,55.602-4.294,72.492,17.634
		c1.63,2.116,3.863,4.797,4.445,7.482c0.849,3.912,0,8.983,0,13c0,4.621,2.447,4.604,4.43,8.078
		c1.861,3.26,1.026,9.134,1.236,12.921c0.245,4.413,0.176,6.122,3.352,9.192c2.878,2.781,3.68,5.679,4.434,9.606
		c1.573,8.188,1.197,16.712-0.966,24.756c-1.862,6.929-5.032,13.667-9.651,19.197c-1.552,1.859-4.636,3.587-5.822,5.546
		c-1.09,1.802-0.685,0.317-0.317,2.433c0.148,0.849,0.741,1.839,1.061,2.641c0.834,2.095,1.659,4.195,2.419,6.318
		c4.422,12.359,5.142,30.296-1.279,42.333c-9.776,18.325-35.117,19.192-50.9,29.976c-8.83,6.034-16.314,13.826-25.233,19.725
		c-10.442,6.907-22.457,9.592-34.846,10.149c-4.432,0.199-8.874,0.127-13.309,0.127c-4.447,0-9.403,0.62-13.67-0.61
		c-6.678-1.925-12.846-6.569-18.064-11c-4.755-4.038-9.845-8.677-12.357-14.479c-1.143-2.64-1.582-5.18-4.521-5.911
		c-3.796-0.944-9.069,0-13,0c-6.489,0-15.496-4.153-20.935-7.947c-5.979-4.17-11.892-9.12-16.441-14.853
		c-6.789-8.555-6.306-23.16-5.53-33.46c0.427-5.659,2.59-11.015,2.962-16.638c0.472-7.13-4.525-13.124-8.157-18.784
		c-8.677-13.522-7.584-30.144-0.709-44.238c3.297-6.759,7.219-11.442,12.811-16.413c1.843-1.639,2.616-2.103,3.001-4.417
		c0.283-1.704-0.266-3.543,0-5.251c0.623-3.994,2.89-8.321,4.64-11.925c6.719-13.837,19.236-24.421,32.608-31.66
		C99.896,44.362,108.227,45.201,112.999,41.006z"/>
	<path fill-rule="evenodd" clip-rule="evenodd" fill="#3C5211" d="M118.999,51.006c8.231-0.093,16.499-0.435,24.715,0.235
		c7.324,0.598,14.038,2.706,21.117,4.446c12.431,3.056,23.616-0.425,36.052-1.638c20.578-2.006,54.707-4.178,65.172,18.76
		c2.724,5.971-1.174,13.356,2.413,19.021c2.33,3.678,3.514,4.869,3.782,9.424c0.223,3.789-0.603,10.334,1.314,13.549
		c1.256,2.107,3.705,2.668,4.772,5.148c0.778,1.807,0.918,4.043,1.119,5.983c0.643,6.192,0.337,12.672-0.757,18.797
		c-0.997,5.582-3.33,9.747-7.11,13.994c-2.28,2.561-4.78,4.92-7.291,7.25c-2.597,2.409-3.517,2.958-2.642,6.635
		c3.065,12.883,10.935,24.255,7.991,38.094c-2.834,13.319-13.16,19.569-25.131,23.838c-11.077,3.951-21.09,8.14-30.366,15.489
		c-7.474,5.922-14.297,12.723-22.653,17.449c-11.693,6.614-24.55,7.687-37.741,7.529c-6.352-0.076-12.704-0.466-18.293-3.759
		c-5.662-3.337-10.803-8.211-14.937-13.291c-3.487-4.285-5.322-11.389-10.524-13.956c-5.941-2.931-13.749,0.154-20.204-1.92
		c-11.413-3.667-26.508-12.083-30.758-24.116c-4.083-11.559,0.371-24.971,0.855-36.788c0.28-6.843-0.76-12.758-4.258-18.699
		c-4.235-7.194-8.293-13.091-8.741-21.753c-0.575-11.104,5.448-27.416,15.901-33.144c0.878-0.481,2.866-0.36,3.538-1.112
		c1.338-1.499,0.54-4.394,0.667-6.467c0.219-3.583,1.447-6.895,2.661-10.295c2.34-6.556,5.342-11.873,10.182-16.9
		c5.56-5.776,12.108-10.851,19.115-14.751C105.117,54.631,113.457,55.146,118.999,51.006z"/>
	<radialGradient id="SVGID_1_" cx="163.8261" cy="163.1579" r="103.6875" gradientUnits="userSpaceOnUse">
		<stop  offset="0" style="stop-color:#BBD77B"/>
		<stop  offset="0.1599" style="stop-color:#B6D276"/>
		<stop  offset="0.357" style="stop-color:#A7C369"/>
		<stop  offset="0.5736" style="stop-color:#8EAA53"/>
		<stop  offset="0.8025" style="stop-color:#6B8834"/>
		<stop  offset="1" style="stop-color:#476414"/>
	</radialGradient>
	<path fill-rule="evenodd" clip-rule="evenodd" fill="url(#SVGID_1_)" d="M124.999,61.006c13.992-0.226,27.303,3.545,41.075,5.249
		c13.845,1.713,26.382-1.233,39.983-3.031c12.721-1.682,24.476,1.646,36.643,4.993c4.939,1.358,8.963,3.16,11.777,7.571
		c3.635,5.697,1.796,11.315,2.948,17.611c0.556,3.037,2.011,4.626,3.405,7.259c1.458,2.753,1.349,5.231,1.543,8.349
		c0.172,2.749-0.473,8.026,0.892,10.355c1.581,2.698,3.804,3.132,4.738,6.493c1.449,5.213,1.278,11.14-0.098,16.344
		c-1.609,6.087-5.97,10.071-10.288,14.344c-7.377,7.302-9.78,13.325-5.32,22.907c4.219,9.064,9.04,17.532,6.349,27.898
		c-3.09,11.902-12.537,16.297-23.323,19.76c-9.461,3.037-17.654,6.655-25.455,12.851c-14.631,11.623-27.912,25.306-47.963,25.362
		c-11.277,0.031-22.532-2.937-30.031-11.733c-6.011-7.051-10.921-18.43-20.989-20.366c-4.952-0.952-9.876,0.072-14.888-1.214
		c-6.356-1.632-12.636-4.52-17.849-8.512c-10.163-7.782-11.046-17.97-10.149-29.955c1.052-14.057,3.225-26.836-4.483-39.398
		c-7.165-11.677-7.109-27.303,4.621-36.463c2.144-1.674,5.116-2.122,7.142-3.847c3.091-2.632,1.052-6.194,1.717-9.827
		c0.729-3.98,3.185-8.191,4.666-11.999c1.66-4.269,3.163-7.629,6.305-11.006c4.773-5.131,10.671-9.226,16.785-12.598
		c2.947-1.625,6.051-3.285,9.243-4.395C117.503,62.788,121.876,63.165,124.999,61.006z"/>
	<path opacity="0.5" fill="#E3F46E" d="M115.869,96.211c-1.831,1.236-5.943-1.662-9.185-6.47c-3.242-4.808-4.384-9.707-2.553-10.941
		c1.831-1.236,5.945,1.662,9.185,6.47C116.558,90.078,117.702,94.977,115.869,96.211L115.869,96.211z M80.191,139.308
		c-3.471-0.65-6.084-2.248-5.836-3.57c0.248-1.322,3.262-1.867,6.732-1.217c3.471,0.65,6.084,2.248,5.836,3.57
		S83.662,139.958,80.191,139.308L80.191,139.308z M86.969,202.957c-2.961,1.924-5.955,2.568-6.687,1.441
		c-0.733-1.128,1.072-3.603,4.032-5.526c2.961-1.924,5.955-2.57,6.689-1.441C91.734,198.558,89.929,201.032,86.969,202.957
		L86.969,202.957z M173.969,76.957c-2.961,1.924-5.955,2.57-6.689,1.441c-0.732-1.129,1.074-3.601,4.034-5.526
		c2.961-1.924,5.955-2.568,6.687-1.441C178.735,72.559,176.929,75.033,173.969,76.957L173.969,76.957z M238.969,109.957
		c-2.961,1.924-5.955,2.57-6.689,1.441c-0.732-1.128,1.074-3.601,4.034-5.526c2.961-1.924,5.955-2.568,6.687-1.441
		C243.735,105.559,241.929,108.033,238.969,109.957L238.969,109.957z M234.192,139.308c-3.471-0.65-6.084-2.248-5.836-3.57
		c0.246-1.322,3.261-1.867,6.732-1.217c3.469,0.65,6.082,2.248,5.836,3.57C240.676,139.412,237.661,139.958,234.192,139.308
		L234.192,139.308z M225.321,89.897c-1.378-0.241-2.414-0.836-2.317-1.329c0.099-0.491,1.294-0.694,2.672-0.453
		c1.378,0.243,2.416,0.838,2.317,1.329C227.896,89.936,226.699,90.14,225.321,89.897L225.321,89.897z M207.322,226.897
		c-1.378-0.241-2.416-0.836-2.317-1.329c0.097-0.491,1.294-0.694,2.672-0.453c1.378,0.243,2.416,0.838,2.317,1.329
		C209.897,226.936,208.7,227.14,207.322,226.897L207.322,226.897z M153.677,243.765c-1.376,0.737-2.573,0.12-2.672-1.38
		c-0.097-1.5,0.939-3.312,2.317-4.049c1.378-0.737,2.575-0.118,2.672,1.38C156.093,241.215,155.055,243.028,153.677,243.765
		L153.677,243.765z M193.646,238.722c-0.364,1.518-1.621,2.002-2.808,1.081c-1.187-0.922-1.852-2.902-1.488-4.422
		c0.364-1.518,1.621-2.002,2.806-1.081C193.344,235.222,194.011,237.202,193.646,238.722L193.646,238.722z M240.671,206.427
		c-1.245,1.824-6.137,0.653-10.926-2.618c-4.789-3.269-7.662-7.4-6.415-9.225c1.245-1.824,6.137-0.651,10.926,2.618
		C239.045,200.473,241.917,204.602,240.671,206.427L240.671,206.427z"/>
	<path fill-rule="evenodd" clip-rule="evenodd" d="M158.121,92.005c34.732-0.342,53.173,27.132,65.203,50.331
		c3.209,6.188,10.522,20.368,6.521,32.826c-7.575,23.582-24.818,46.315-48.903,53.612c-10.404,3.153-27.922-0.398-35.862-2.189
		c-10.37-2.336-17.528-1.715-24.995-6.564c-22.433-14.566-36.242-55.618-22.821-89.721c7.532-19.137,27.354-29.037,46.73-36.107
		C148.175,92.669,154.634,94.127,158.121,92.005L158.121,92.005z"/>
	<radialGradient id="SVGID_2_" cx="165.4967" cy="156.0176" r="69.2656" gradientUnits="userSpaceOnUse">
		<stop  offset="0" style="stop-color:#8EB344"/>
		<stop  offset="1" style="stop-color:#585F38"/>
	</radialGradient>
	<path fill-rule="evenodd" clip-rule="evenodd" fill="url(#SVGID_2_)" d="M162.12,87.006c34.732-0.342,53.173,27.132,65.205,50.331
		c3.208,6.188,10.521,20.368,6.52,32.824c-7.573,23.584-24.817,46.316-48.903,53.614c-10.403,3.153-27.922-0.398-35.861-2.189
		c-10.37-2.337-17.529-1.717-24.996-6.564c-22.431-14.566-36.242-55.618-22.821-89.721c7.532-19.138,27.354-29.037,46.73-36.107
		C152.174,87.669,158.634,89.128,162.12,87.006L162.12,87.006z"/>
	<path fill-rule="evenodd" clip-rule="evenodd" fill="#739B27" d="M204.81,153.558c-0.964-5.248,7.64-11.666,21.87-17.448
		c0.215,0.408,0.433,0.82,0.645,1.227c2.531,4.88,7.592,14.735,7.665,24.792C217.698,162.173,205.846,159.199,204.81,153.558
		L204.81,153.558z M191.368,188.993c4.42-3.056,13.911,2.248,25.131,12.998c-5.901,7.052-12.9,13.067-20.863,17.333
		C188.744,203.925,186.723,192.206,191.368,188.993L191.368,188.993z M213.132,114.359c-10.204,12.7-19.368,19.547-24.259,16.969
		c-5.608-2.957-4.159-17.553,2.643-36.722C200.125,99.592,207.199,106.607,213.132,114.359L213.132,114.359z M161,194.007
		c6.052,0,11.361,12.382,14.372,31.011c-9.533,0.124-20.478-2.12-26.292-3.431c-0.609-0.137-1.204-0.261-1.792-0.38
		C150.382,204.717,155.371,194.007,161,194.007L161,194.007z M162.121,87.006c5.108-0.05,9.856,0.515,14.291,1.566
		c-2.705,22.696-8.587,38.433-15.411,38.433c-6.677,0-12.454-15.069-15.234-36.978c0.742-0.279,1.485-0.563,2.227-0.833
		C152.174,87.668,158.635,89.126,162.121,87.006L162.121,87.006z M107.629,197.207c11.002-14.326,21.061-22.277,26.271-19.53
		c5.942,3.133,3.967,19.327-3.909,40.187c-1.991-0.673-3.937-1.565-5.907-2.843C117.78,210.927,112.157,204.742,107.629,197.207
		L107.629,197.207z M127.622,158.538c1.098,5.978-10.219,13.474-28.13,19.819c-2.605-8.935-3.863-18.624-3.399-28.386
		C114.122,149.763,126.56,152.75,127.622,158.538L127.622,158.538z M130.018,136.383c-4.667,3.227-14.989-2.87-27.035-14.861
		c4.498-8.809,11.749-15.49,20.258-20.801C132.104,118.71,135.186,132.809,130.018,136.383L130.018,136.383z"/>
	<g id="eye_3_">
		<path fill-rule="evenodd" clip-rule="evenodd" d="M128.327,117.993c10.97-1.906,22.19,5.743,25.061,17.085
			c2.871,11.341-3.695,22.079-14.665,23.986c-10.969,1.905-22.189-5.745-25.06-17.087
			C110.792,130.636,117.358,119.898,128.327,117.993L128.327,117.993z"/>
		<radialGradient id="SVGID_3_" cx="133.5255" cy="135.8492" r="20.6818" gradientUnits="userSpaceOnUse">
			<stop  offset="0" style="stop-color:#FFFFFF"/>
			<stop  offset="0.2115" style="stop-color:#FFFEFC"/>
			<stop  offset="0.3677" style="stop-color:#FDFAF3"/>
			<stop  offset="0.5062" style="stop-color:#FBF3E3"/>
			<stop  offset="0.6343" style="stop-color:#F7E9CC"/>
			<stop  offset="0.7553" style="stop-color:#F3DDAF"/>
			<stop  offset="0.8711" style="stop-color:#EECE8B"/>
			<stop  offset="0.9807" style="stop-color:#E7BC61"/>
			<stop  offset="1" style="stop-color:#E6B959"/>
		</radialGradient>
		<path fill-rule="evenodd" clip-rule="evenodd" fill="url(#SVGID_3_)" d="M128.327,115.314c10.97-1.905,22.19,5.745,25.061,17.087
			c2.871,11.34-3.695,22.079-14.665,23.984c-10.969,1.905-22.189-5.743-25.06-17.085
			C110.792,127.958,117.358,117.219,128.327,115.314L128.327,115.314z"/>
		<path fill-rule="evenodd" clip-rule="evenodd" d="M138.868,128.027c4.302-0.728,8.701,2.199,9.826,6.54
			c1.127,4.341-1.448,8.452-5.75,9.182c-4.3,0.728-8.7-2.199-9.826-6.54C131.993,132.867,134.568,128.757,138.868,128.027
			L138.868,128.027z"/>
		<path fill-rule="evenodd" clip-rule="evenodd" fill="#FFFFFF" d="M136.228,131.212c3.48,1.684,5.523,4.526,4.564,6.347
			c-0.959,1.821-4.555,1.93-8.035,0.246c-3.478-1.684-5.521-4.526-4.562-6.347C129.153,129.637,132.75,129.528,136.228,131.212
			L136.228,131.212z"/>
	</g>
	<g id="eye_2_">
		<path fill-rule="evenodd" clip-rule="evenodd" d="M211.236,134.334c4.664,10.292-0.215,23.264-10.899,28.977
			c-10.683,5.713-23.124,2.001-27.787-8.291c-4.664-10.292,0.215-23.264,10.899-28.977
			C194.132,120.331,206.573,124.043,211.236,134.334L211.236,134.334z"/>
		<radialGradient id="SVGID_4_" cx="191.8929" cy="141.8977" r="21.2143" gradientUnits="userSpaceOnUse">
			<stop  offset="0" style="stop-color:#FFFFFF"/>
			<stop  offset="0.2115" style="stop-color:#FFFEFC"/>
			<stop  offset="0.3677" style="stop-color:#FDFAF3"/>
			<stop  offset="0.5062" style="stop-color:#FBF3E3"/>
			<stop  offset="0.6343" style="stop-color:#F7E9CC"/>
			<stop  offset="0.7553" style="stop-color:#F3DDAF"/>
			<stop  offset="0.8711" style="stop-color:#EECE8B"/>
			<stop  offset="0.9807" style="stop-color:#E7BC61"/>
			<stop  offset="1" style="stop-color:#E6B959"/>
		</radialGradient>
		<path fill-rule="evenodd" clip-rule="evenodd" fill="url(#SVGID_4_)" d="M211.236,131.554
			c4.664,10.292-0.215,23.266-10.899,28.979c-10.683,5.713-23.124,2.001-27.787-8.291c-4.664-10.292,0.215-23.266,10.899-28.979
			S206.573,121.262,211.236,131.554L211.236,131.554z"/>
		<path fill-rule="evenodd" clip-rule="evenodd" d="M193.961,138.475c1.83,3.939-0.084,8.905-4.273,11.092
			c-4.189,2.187-9.067,0.766-10.895-3.173c-1.83-3.939,0.084-8.905,4.273-11.092C187.255,133.115,192.133,134.536,193.961,138.475
			L193.961,138.475z"/>
		<path fill-rule="evenodd" clip-rule="evenodd" fill="#FFFFFF" d="M182.235,136.345c3.469,1.869,5.506,5.022,4.55,7.041
			c-0.956,2.021-4.543,2.142-8.011,0.274c-3.469-1.869-5.506-5.022-4.55-7.043C175.18,134.598,178.767,134.476,182.235,136.345
			L182.235,136.345z"/>
	</g>
	<path fill-rule="evenodd" clip-rule="evenodd" d="M168,180.006c18.778,0,27.37-11.121,31,2.5c2.631,9.873-15.223,18.501-34,18.501
		s-29.221-9.469-34-18.501C120.791,163.214,149.223,180.006,168,180.006L168,180.006z"/>
	<path fill-rule="evenodd" clip-rule="evenodd" fill="#FFFFFF" d="M158.054,200.534c-6.383-0.886-11.584-2.975-15.768-5.707
		c1.594-2.572,3.435-4.777,5.357-6.602C157.62,178.754,157.926,187.929,158.054,200.534L158.054,200.534z"/>
</g>
</svg>
